<svg width="384" height="382" viewBox="0 0 384 382" fill="none" xmlns="http://www.w3.org/2000/svg">
<circle cx="231.411" cy="55.6897" r="7" transform="rotate(-13.1717 231.411 55.6897)" fill="#EFF3F8"/>
<circle cx="15.2094" cy="173.944" r="6" transform="rotate(-13.1717 15.2094 173.944)" fill="#EFF3F8"/>
<circle cx="342.806" cy="130.452" r="4" transform="rotate(-13.1717 342.806 130.452)" fill="#EFF3F8"/>
<rect x="59.75" y="105.75" width="251.5" height="152.5" rx="11.25" fill="white" stroke="#003366" stroke-width="1.5"/>
<path d="M69 123C69 118.582 72.5817 115 77 115H294C298.418 115 302 118.582 302 123V247C302 253.627 296.627 259 290 259H81C74.3726 259 69 253.627 69 247V123Z" fill="#CDDEEE"/>
<path d="M29.75 253C29.75 249.548 32.5482 246.75 36 246.75H335C338.452 246.75 341.25 249.548 341.25 253C341.25 256.452 338.452 259.25 335 259.25H36C32.5482 259.25 29.75 256.452 29.75 253Z" fill="white" stroke="#003366" stroke-width="1.5"/>
<path d="M206.212 246.75C205.836 250.402 202.751 253.25 199 253.25H172C168.249 253.25 165.164 250.402 164.788 246.75H206.212Z" fill="white" stroke="#003366" stroke-width="1.5"/>
<circle cx="78" cy="127" r="2" fill="#EFF3F8"/>
<circle cx="84.6667" cy="127" r="2" fill="#EFF3F8"/>
<circle cx="91.3333" cy="127" r="2" fill="#EFF3F8"/>
<path d="M148.432 185.616C155.634 181.105 157.815 171.609 153.304 164.407C148.793 157.205 139.297 155.024 132.095 159.535L101.272 178.842C94.0702 183.354 91.8889 192.849 96.4002 200.051C100.911 207.253 110.407 209.434 117.609 204.923L148.432 185.616Z" fill="#EFF3F8"/>
<circle r="68.5445" transform="matrix(-0.820378 0.571822 0.571822 0.820378 191.009 170.441)" fill="white"/>
<mask id="mask0_1261_1128" style="mask-type:alpha" maskUnits="userSpaceOnUse" x="122" y="101" width="138" height="138">
<circle r="68.5445" transform="matrix(-0.820378 0.571822 0.571822 0.820378 191.009 170.441)" fill="white"/>
</mask>
<g mask="url(#mask0_1261_1128)">
<path d="M230.229 168.049L305.472 192.232" stroke="#CDDEEE" stroke-width="4.1966" stroke-linecap="square" stroke-linejoin="round"/>
<path d="M130.036 146.097C132.644 129.302 148.374 117.801 165.169 120.41L203.874 126.421C220.669 129.03 232.169 144.759 229.561 161.555L228.273 169.848C225.664 186.644 209.934 198.144 193.139 195.536L154.435 189.524C137.639 186.916 126.139 171.186 128.747 154.391L130.036 146.097Z" fill="#003366"/>
<rect x="137.172" y="121.352" width="89.5276" height="58.7525" rx="25.1796" transform="rotate(8.82844 137.172 121.352)" fill="#EFF3F8"/>
<circle cx="154.411" cy="144.411" r="7" transform="rotate(-13.1717 154.411 144.411)" fill="#003366"/>
<circle cx="198.411" cy="149.411" r="7" transform="rotate(-13.1717 198.411 149.411)" fill="#003366"/>
<circle cx="155.675" cy="141.034" r="2" transform="rotate(-13.1717 155.675 141.034)" fill="white"/>
<circle cx="199.675" cy="146.034" r="2" transform="rotate(-13.1717 199.675 146.034)" fill="white"/>
<path opacity="0.5" d="M154.494 161.003L156.18 160.998C162.124 160.978 167.635 164.103 170.67 169.213L171.531 170.663" stroke="#003366" stroke-width="4.1966" stroke-linecap="round" stroke-linejoin="round"/>
<path opacity="0.5" d="M147 133.922L148.384 134.704C153.265 137.46 159.24 137.43 164.093 134.625L165.469 133.829" stroke="#003366" stroke-width="4.2" stroke-linecap="round" stroke-linejoin="round"/>
<path opacity="0.5" d="M197.926 134.846L199.472 135.216C204.923 136.521 209.278 140.612 210.921 145.971L211.387 147.491" stroke="#003366" stroke-width="4.2" stroke-linecap="round" stroke-linejoin="round"/>
</g>
<path d="M245.451 183.823C239.41 177.845 229.668 177.897 223.69 183.937C217.713 189.978 217.764 199.721 223.805 205.698L249.658 231.28C255.699 237.258 265.442 237.206 271.419 231.166C277.397 225.125 277.345 215.382 271.304 209.405L245.451 183.823Z" fill="white"/>
<rect x="-0.615495" y="-0.0653821" width="4.96025" height="7.87804" transform="matrix(-0.628457 -0.777844 -0.777844 0.628457 269.548 208.201)" fill="white" stroke="#003366" stroke-width="0.875338"/>
<rect width="8.16982" height="37.9313" rx="2.33424" transform="matrix(-0.628457 -0.777844 -0.777844 0.628457 267.249 212.913)" fill="#003366"/>
<rect width="0.583559" height="32.0957" transform="matrix(-0.628457 -0.777844 -0.777844 0.628457 260.946 209.754)" fill="white"/>
<circle r="22.1752" transform="matrix(-0.994405 -0.105633 -0.105633 0.994405 286.644 192.302)" stroke="#003366" stroke-width="3"/>
<path d="M271.16 189.594C272.079 180.941 279.839 174.671 288.492 175.591" stroke="#7893AF" stroke-width="2.33424" stroke-linecap="round"/>
<path d="M253.754 123.961L253.349 125.299C251.43 131.643 244.732 135.23 238.389 133.311L236.777 132.824" stroke="#003366" stroke-width="3"/>
<path d="M259.757 125.777L259.352 127.115C257.433 133.459 261.02 140.157 267.364 142.075L268.975 142.563" stroke="#003366" stroke-width="3"/>
<path d="M244.098 155.886L244.503 154.548C246.421 148.204 242.834 141.506 236.491 139.587L234.879 139.1" stroke="#003366" stroke-width="3"/>
<path d="M250.101 157.702L250.505 156.363C252.424 150.02 259.122 146.432 265.466 148.351L267.077 148.838" stroke="#003366" stroke-width="3"/>
<path opacity="0.4" d="M64.6027 42.8645C100.111 25.6866 124.936 41.4382 144.056 56.9702C179.907 86.0933 208.902 104.948 242.719 122.194C284.989 143.752 311.615 167.783 324.163 187.499C336.712 207.214 342.261 228.792 327.95 256.026C313.64 283.259 278.736 288.374 241.556 289.122C199.618 289.967 181.636 301.108 148.474 309.753C112.9 319.026 93.1427 313.785 76.3143 307.577C59.4859 301.369 37.1385 278.751 32.8509 258.973C27.9425 236.331 31.1171 222.137 39.8536 192.262C46.8427 168.363 48.8663 152.83 38.1808 135.918C24.5956 114.416 26.747 61.178 64.6027 42.8645Z" fill="#D6E2ED"/>
<path d="M148.432 185.616C155.634 181.105 157.815 171.609 153.304 164.407V164.407C148.793 157.205 139.297 155.024 132.095 159.535L101.272 178.842C94.0702 183.354 91.8889 192.849 96.4002 200.051V200.051C100.911 207.253 110.407 209.434 117.609 204.923L148.432 185.616Z" fill="#EFF3F8"/>
<circle r="68.5445" transform="matrix(-0.820378 0.571822 0.571822 0.820378 191.009 170.441)" fill="white"/>
<mask id="mask1_1261_1128" style="mask-type:alpha" maskUnits="userSpaceOnUse" x="122" y="101" width="138" height="138">
<circle r="68.5445" transform="matrix(-0.820378 0.571822 0.571822 0.820378 191.009 170.441)" fill="white"/>
</mask>
<g mask="url(#mask1_1261_1128)">
<path d="M230.229 168.049L305.472 192.232" stroke="#CDDEEE" stroke-width="4.1966" stroke-linecap="square" stroke-linejoin="round"/>
<path d="M130.036 146.097C132.644 129.302 148.374 117.801 165.169 120.41L203.874 126.421C220.669 129.03 232.169 144.759 229.561 161.555L228.273 169.848C225.664 186.644 209.934 198.144 193.139 195.536L154.435 189.524C137.639 186.916 126.139 171.186 128.747 154.391L130.036 146.097Z" fill="#003366"/>
<rect x="137.172" y="121.352" width="89.5276" height="58.7525" rx="25.1796" transform="rotate(8.82844 137.172 121.352)" fill="#EFF3F8"/>
<circle cx="154.411" cy="144.411" r="7" transform="rotate(-13.1717 154.411 144.411)" fill="#003366"/>
<circle cx="198.411" cy="149.411" r="7" transform="rotate(-13.1717 198.411 149.411)" fill="#003366"/>
<circle cx="155.675" cy="141.034" r="2" transform="rotate(-13.1717 155.675 141.034)" fill="white"/>
<circle cx="199.675" cy="146.034" r="2" transform="rotate(-13.1717 199.675 146.034)" fill="white"/>
<path opacity="0.5" d="M154.494 161.003L156.18 160.998C162.124 160.978 167.635 164.103 170.67 169.213L171.531 170.663" stroke="#003366" stroke-width="4.1966" stroke-linecap="round" stroke-linejoin="round"/>
<path opacity="0.5" d="M147 133.922L148.384 134.704C153.265 137.46 159.24 137.43 164.093 134.625L165.469 133.829" stroke="#003366" stroke-width="4.2" stroke-linecap="round" stroke-linejoin="round"/>
<path opacity="0.5" d="M197.926 134.846L199.472 135.216C204.923 136.521 209.278 140.612 210.921 145.971L211.387 147.491" stroke="#003366" stroke-width="4.2" stroke-linecap="round" stroke-linejoin="round"/>
</g>
<path d="M245.451 183.823C239.41 177.845 229.668 177.897 223.69 183.937V183.937C217.713 189.978 217.764 199.721 223.805 205.698L249.658 231.28C255.699 237.258 265.442 237.206 271.419 231.166V231.166C277.397 225.125 277.345 215.382 271.304 209.405L245.451 183.823Z" fill="white"/>
<rect x="-0.615495" y="-0.0653821" width="4.96025" height="7.87804" transform="matrix(-0.628457 -0.777844 -0.777844 0.628457 269.548 208.201)" fill="white" stroke="#003366" stroke-width="0.875338"/>
<rect width="8.16982" height="37.9313" rx="2.33424" transform="matrix(-0.628457 -0.777844 -0.777844 0.628457 267.249 212.913)" fill="#003366"/>
<rect width="0.583559" height="32.0957" transform="matrix(-0.628457 -0.777844 -0.777844 0.628457 260.946 209.754)" fill="white"/>
<circle r="22.1752" transform="matrix(-0.994405 -0.105633 -0.105633 0.994405 286.644 192.302)" stroke="#003366" stroke-width="3"/>
<path d="M271.16 189.594C272.079 180.941 279.839 174.671 288.492 175.591" stroke="#7893AF" stroke-width="2.33424" stroke-linecap="round"/>
<path d="M253.754 123.961L253.349 125.299C251.43 131.643 244.732 135.23 238.389 133.311L236.777 132.824" stroke="#003366" stroke-width="3"/>
<path d="M259.757 125.777L259.352 127.115C257.433 133.459 261.02 140.157 267.364 142.075L268.975 142.563" stroke="#003366" stroke-width="3"/>
<path d="M244.098 155.886L244.503 154.548C246.421 148.204 242.834 141.506 236.491 139.587L234.879 139.1" stroke="#003366" stroke-width="3"/>
<path d="M250.101 157.702L250.505 156.363C252.424 150.02 259.122 146.432 265.466 148.351L267.077 148.838" stroke="#003366" stroke-width="3"/>
</svg>
