<svg width="170" height="40" viewBox="0 0 170 40" fill="none" xmlns="http://www.w3.org/2000/svg">
<path d="M11.8403 12.5509L8.10112 16.2781C7.68822 16.6897 7.01879 16.6897 6.60589 16.2781C6.19299 15.8665 6.19299 15.1992 6.60589 14.7876L11.0916 10.3162C11.2983 10.1102 11.5693 10.0073 11.8403 10.0076C12.1112 10.0073 12.3822 10.1102 12.589 10.3162L16.327 14.0424L20.0651 10.3162C20.478 9.90466 21.1475 9.90466 21.5604 10.3162C21.9733 10.7278 21.9733 11.3951 21.5604 11.8067L17.0769 16.2759L17.0747 16.2781C16.6618 16.6897 15.9923 16.6897 15.5794 16.2781L11.8403 12.5509Z" fill="white"/>
<path fill-rule="evenodd" clip-rule="evenodd" d="M14.0852 0C14.6689 0 15.1427 0.472226 15.1427 1.05408V2.28102C20.8402 2.78276 25.3788 7.30685 25.8821 12.9862H27.113C27.6967 12.9862 28.1705 13.4584 28.1705 14.0403C28.1705 14.6221 27.6967 15.0944 27.113 15.0944H25.8821C25.3788 20.7737 20.8402 25.2978 15.1427 25.7996V27.0265C15.1427 27.6084 14.6689 28.0806 14.0852 28.0806C13.5015 28.0806 13.0278 27.6084 13.0278 27.0265V25.7996C7.33024 25.2978 2.79167 20.7737 2.28832 15.0944H1.05745C0.473737 15.0944 0 14.6221 0 14.0403C0 13.4584 0.473737 12.9862 1.05745 12.9862H2.28832C2.79167 7.30685 7.33024 2.78276 13.0278 2.28102V1.05408C13.0278 0.472226 13.5015 0 14.0852 0ZM14.0852 23.7378C19.4592 23.7378 23.8138 19.3971 23.8138 14.0403C23.8138 8.68348 19.4592 4.34279 14.0852 4.34279C8.71127 4.34279 4.35669 8.68348 4.35669 14.0403C4.35669 19.3971 8.71127 23.7378 14.0852 23.7378Z" fill="white"/>
<path d="M7.90972 31.1163C7.90972 30.5345 8.38346 30.0622 8.96717 30.0622H19.2879C19.8716 30.0622 20.3453 30.5345 20.3453 31.1163C20.3453 31.6982 19.8716 32.1704 19.2879 32.1704H8.96717C8.38346 32.1704 7.90972 31.6982 7.90972 31.1163Z" fill="white"/>
<path d="M10.4476 34.2785C9.86389 34.2785 9.39015 34.7508 9.39015 35.3326C9.39015 35.9145 9.86389 36.3867 10.4476 36.3867H17.8074C18.3912 36.3867 18.8649 35.9145 18.8649 35.3326C18.8649 34.7508 18.3912 34.2785 17.8074 34.2785H10.4476Z" fill="white"/>
<path d="M14.1275 40C15.1596 40 16.2424 38.4189 16.2424 38.4189H12.0126C12.0126 38.4189 13.0954 40 14.1275 40Z" fill="white"/>
<path d="M42.2021 7.0708V7.89361H38.5495V18.5902H37.653V7.89361H34.0004V7.0708H42.2021Z" fill="white"/>
<path d="M51.6663 7.0708H52.5462V18.5902H51.6663V13.0773H44.909V18.5902H44.029V7.0708H44.909V12.2545H51.6663V7.0708Z" fill="white"/>
<path d="M62.118 17.7674H56.3071V13.1925H61.6199V12.3697H56.3071V7.89361H62.035V7.0708H55.4272V18.5902H62.118V17.7674Z" fill="white"/>
<path fill-rule="evenodd" clip-rule="evenodd" d="M75.4633 12.6166C76.4152 13.22 76.8911 14.0867 76.8911 15.2167C76.8911 16.215 76.5314 17.0268 75.812 17.6522C75.0925 18.2775 74.2015 18.5902 73.1389 18.5902H68.2578V7.0708H72.8069C73.8473 7.0708 74.7162 7.37798 75.4135 7.99235C76.1219 8.59575 76.4761 9.38565 76.4761 10.3621C76.4761 11.2836 76.1385 12.0351 75.4633 12.6166ZM72.8069 9.53924H70.9142V11.5798H72.8069C73.1057 11.5798 73.3492 11.4866 73.5374 11.3001C73.7256 11.1026 73.8196 10.8557 73.8196 10.5595C73.8196 10.2633 73.7256 10.022 73.5374 9.83545C73.3492 9.63798 73.1057 9.53924 72.8069 9.53924ZM73.1389 16.1217C73.471 16.1217 73.7366 16.023 73.9359 15.8255C74.1351 15.6171 74.2347 15.3483 74.2347 15.0192C74.2347 14.6901 74.1351 14.4268 73.9359 14.2293C73.7366 14.0208 73.471 13.9166 73.1389 13.9166H70.9142V16.1217H73.1389Z" fill="white"/>
<path d="M85.518 16.0559H80.8693V14.0153H85.02V11.514H80.8693V9.60507H85.435V7.0708H78.2129V18.5902H85.518V16.0559Z" fill="white"/>
<path d="M94.82 7.0708V9.60507H91.8316V18.5902H89.1751V9.60507H86.1867V7.0708H94.82Z" fill="white"/>
<path d="M103.786 9.60507V7.0708H95.1527V9.60507H98.1412V18.5902H100.798V9.60507H103.786Z" fill="white"/>
<path d="M107.605 16.0559H112.254V18.5902H104.949V7.0708H112.171V9.60507H107.605V11.514H111.756V14.0153H107.605V16.0559Z" fill="white"/>
<path fill-rule="evenodd" clip-rule="evenodd" d="M117.671 14.8052L119.863 18.5902H122.718L120.245 14.3609C120.887 14.0318 121.401 13.571 121.789 12.9786C122.187 12.3752 122.386 11.7224 122.386 11.0203C122.386 9.92322 121.999 8.9907 121.224 8.22274C120.449 7.45478 119.508 7.0708 118.402 7.0708H113.753V18.5902H116.409V14.8052H117.671ZM116.409 12.5014V9.53924H118.402C118.767 9.53924 119.077 9.68186 119.331 9.9671C119.597 10.2523 119.73 10.6034 119.73 11.0203C119.73 11.4372 119.597 11.7883 119.331 12.0735C119.077 12.3587 118.767 12.5014 118.402 12.5014H116.409Z" fill="white"/>
<path d="M100.368 32.2012C101.134 32.6864 102.086 32.9291 103.225 32.9291C104.46 32.9291 105.46 32.6284 106.226 32.0271C106.993 31.4153 107.376 30.5819 107.376 29.5271C107.376 29.0735 107.296 28.6726 107.136 28.3245C106.987 27.9658 106.812 27.681 106.61 27.47C106.418 27.2485 106.131 27.0428 105.748 26.8529C105.375 26.6525 105.066 26.5101 104.822 26.4257C104.577 26.3413 104.231 26.2305 103.784 26.0934C102.964 25.8508 102.422 25.6292 102.156 25.4288C101.9 25.2284 101.772 24.991 101.772 24.7168C101.772 24.4847 101.874 24.2895 102.076 24.1313C102.289 23.9625 102.587 23.8781 102.97 23.8781C103.459 23.8781 103.853 23.9889 104.151 24.2104C104.449 24.4214 104.699 24.7379 104.901 25.1598L107.057 23.9098C106.652 23.0975 106.099 22.4804 105.396 22.0584C104.694 21.6259 103.885 21.4097 102.97 21.4097C101.948 21.4097 101.065 21.7156 100.32 22.3274C99.5854 22.9393 99.2182 23.7568 99.2182 24.7801C99.2182 25.2864 99.3034 25.7347 99.4736 26.125C99.6546 26.5154 99.91 26.8424 100.24 27.1061C100.58 27.3593 100.926 27.565 101.278 27.7232C101.629 27.8814 102.039 28.0238 102.507 28.1504C103.401 28.3931 104.007 28.6093 104.327 28.7992C104.657 28.9785 104.822 29.2317 104.822 29.5587C104.822 30.16 104.316 30.4606 103.305 30.4606C102.188 30.4606 101.405 29.949 100.958 28.9258L98.7553 30.1916C99.0745 31.0355 99.612 31.7054 100.368 32.2012Z" fill="white"/>
<path d="M35.6606 31.236C36.7675 32.3436 38.167 32.8974 39.8592 32.8974C40.8915 32.8974 41.8387 32.6495 42.7008 32.1537C43.5735 31.6579 44.2387 30.9934 44.6963 30.16L43.7065 29.6062C43.3553 30.2813 42.8338 30.8193 42.142 31.2202C41.4503 31.621 40.6893 31.8214 39.8592 31.8214C38.465 31.8214 37.3262 31.3731 36.4429 30.4765C35.5595 29.5798 35.1179 28.4774 35.1179 27.1694C35.1179 25.8613 35.5595 24.759 36.4429 23.8623C37.3262 22.9656 38.465 22.5173 39.8592 22.5173C40.6893 22.5173 41.4503 22.7177 42.142 23.1186C42.8338 23.5195 43.3553 24.0575 43.7065 24.7326L44.6963 24.1629C44.228 23.3296 43.5628 22.6703 42.7008 22.185C41.8387 21.6892 40.8915 21.4413 39.8592 21.4413C38.167 21.4413 36.7675 21.9951 35.6606 23.1028C34.5538 24.2104 34.0004 25.566 34.0004 27.1694C34.0004 28.7728 34.5538 30.1283 35.6606 31.236Z" fill="white"/>
<path fill-rule="evenodd" clip-rule="evenodd" d="M50.7805 28.277L53.3986 32.7075H54.6757L51.9459 28.1346C52.6483 27.9342 53.223 27.5439 53.67 26.9637C54.1276 26.3729 54.3564 25.7031 54.3564 24.9541C54.3564 24.0364 54.0265 23.2557 53.3667 22.6123C52.7175 21.9582 51.9299 21.6312 51.004 21.6312H46.534V32.7075H47.6515V28.277H50.7805ZM47.6515 27.2327V22.6756H51.004C51.6213 22.6756 52.1481 22.8971 52.5844 23.3401C53.0208 23.7832 53.2389 24.3212 53.2389 24.9541C53.2389 25.5765 53.0208 26.1145 52.5844 26.5681C52.1481 27.0111 51.6213 27.2327 51.004 27.2327H47.6515Z" fill="white"/>
<path d="M64.0278 21.6312L59.9889 28.1663V32.7075H58.8714V28.1346L54.8484 21.6312H56.1096L59.4461 27.0586L62.7666 21.6312H64.0278Z" fill="white"/>
<path fill-rule="evenodd" clip-rule="evenodd" d="M71.9576 22.6281C71.2871 21.9635 70.4516 21.6312 69.4512 21.6312H65.4602V32.7075H66.5777V28.5935H69.4512C70.4516 28.5935 71.2871 28.2612 71.9576 27.5966C72.6281 26.932 72.9633 26.1039 72.9633 25.1123C72.9633 24.1208 72.6281 23.2927 71.9576 22.6281ZM71.1594 26.8687C70.7124 27.3223 70.143 27.5491 69.4512 27.5491H66.5777V22.6756H69.4512C70.143 22.6756 70.7124 22.9076 71.1594 23.3718C71.617 23.8254 71.8458 24.4056 71.8458 25.1123C71.8458 25.8191 71.617 26.4046 71.1594 26.8687Z" fill="white"/>
<path d="M81.5889 21.6312V22.6756H78.1566V32.7075H77.0391V22.6756H73.6069V21.6312H81.5889Z" fill="white"/>
<path fill-rule="evenodd" clip-rule="evenodd" d="M87.6872 32.8974C89.3049 32.8974 90.6725 32.3436 91.7899 31.236C92.9074 30.1178 93.4662 28.7623 93.4662 27.1694C93.4662 25.5765 92.9074 24.2262 91.7899 23.1186C90.6725 22.0004 89.3049 21.4413 87.6872 21.4413C86.0695 21.4413 84.7019 22.0004 83.5844 23.1186C82.4669 24.2262 81.9082 25.5765 81.9082 27.1694C81.9082 28.7623 82.4669 30.1178 83.5844 31.236C84.7019 32.3436 86.0695 32.8974 87.6872 32.8974ZM87.6872 31.8214C86.3675 31.8214 85.2606 31.3731 84.3666 30.4765C83.4727 29.5693 83.0257 28.4669 83.0257 27.1694C83.0257 25.8719 83.4727 24.7748 84.3666 23.8781C85.2606 22.9709 86.3675 22.5173 87.6872 22.5173C89.0069 22.5173 90.1137 22.9709 91.0077 23.8781C91.9017 24.7748 92.3487 25.8719 92.3487 27.1694C92.3487 28.4669 91.9017 29.5693 91.0077 30.4765C90.1137 31.3731 89.0069 31.8214 87.6872 31.8214Z" fill="white"/>
<path d="M109.74 31.2834C110.847 32.3805 112.236 32.9291 113.906 32.9291C114.917 32.9291 115.849 32.7023 116.7 32.2487C117.552 31.7845 118.217 31.1569 118.696 30.3657L116.493 29.0998C116.258 29.5218 115.907 29.8541 115.439 30.0967C114.981 30.3393 114.47 30.4606 113.906 30.4606C112.917 30.4606 112.124 30.16 111.528 29.5587C110.942 28.9574 110.65 28.161 110.65 27.1694C110.65 26.1778 110.942 25.3813 111.528 24.7801C112.124 24.1788 112.917 23.8781 113.906 23.8781C114.47 23.8781 114.981 23.9994 115.439 24.2421C115.897 24.4741 116.248 24.8064 116.493 25.2389L118.696 23.9731C118.206 23.1819 117.536 22.5595 116.684 22.1059C115.833 21.6418 114.907 21.4097 113.906 21.4097C112.236 21.4097 110.847 21.9635 109.74 23.0711C108.644 24.1682 108.095 25.5343 108.095 27.1694C108.095 28.8045 108.644 30.1758 109.74 31.2834Z" fill="white"/>
<path fill-rule="evenodd" clip-rule="evenodd" d="M126.997 32.7075L126.438 30.967H122.287L121.729 32.7075H118.935L122.734 21.6312H125.991L129.79 32.7075H126.997ZM125.672 28.5935L124.363 24.5269L123.054 28.5935H125.672Z" fill="white"/>
<path d="M139.524 21.6312H136.969V27.6441L132.659 21.6312H130.743V32.7075H133.298V26.6947L137.608 32.7075H139.524V21.6312Z" fill="white"/>
<path d="M147.664 21.6312H150.218V32.7075H148.303L143.992 26.6947V32.7075H141.438V21.6312H143.354L147.664 27.6441V21.6312Z" fill="white"/>
<path d="M159.157 30.2708H154.687V28.3087H158.678V25.9035H154.687V24.068H159.077V21.6312H152.133V32.7075H159.157V30.2708Z" fill="white"/>
<path fill-rule="evenodd" clip-rule="evenodd" d="M165.148 29.0682L167.255 32.7076H170.001L167.622 28.641C168.239 28.3245 168.734 27.8814 169.107 27.3118C169.49 26.7316 169.681 26.104 169.681 25.4288C169.681 24.3739 169.309 23.4773 168.564 22.7389C167.819 22.0004 166.914 21.6312 165.85 21.6312H161.38V32.7076H163.934V29.0682H165.148ZM165.85 26.8529H163.934V24.0047H165.85C166.201 24.0047 166.499 24.1419 166.744 24.4161C166.999 24.6904 167.127 25.028 167.127 25.4288C167.127 25.8297 166.999 26.1672 166.744 26.4415C166.499 26.7158 166.201 26.8529 165.85 26.8529Z" fill="white"/>
</svg>
