<svg width="40" height="40" viewBox="0 0 40 40" fill="none" xmlns="http://www.w3.org/2000/svg">
<circle opacity="0.1" cx="20" cy="20" r="20" fill="#209989"/>
<path d="M19.183 26.25H16.2497C15.733 26.25 15.2747 26.2333 14.8663 26.175C12.6747 25.9333 12.083 24.9 12.083 22.0833V17.9167C12.083 15.1 12.6747 14.0667 14.8663 13.825C15.2747 13.7667 15.733 13.75 16.2497 13.75H19.133" stroke="#209989" stroke-width="1.5" stroke-linecap="round" stroke-linejoin="round"/>
<path d="M22.5166 13.75H23.7499C24.2666 13.75 24.7249 13.7667 25.1333 13.825C27.3249 14.0667 27.9166 15.1 27.9166 17.9167V22.0833C27.9166 24.9 27.3249 25.9333 25.1333 26.175C24.7249 26.2333 24.2666 26.25 23.7499 26.25H22.5166" stroke="#209989" stroke-width="1.5" stroke-linecap="round" stroke-linejoin="round"/>
<path d="M22.5 11.6666V28.3333" stroke="#209989" stroke-width="1.5" stroke-linecap="round" stroke-linejoin="round"/>
<path d="M19.2451 20H19.2526" stroke="#209989" stroke-width="2" stroke-linecap="round" stroke-linejoin="round"/>
<path d="M15.9121 20H15.9196" stroke="#209989" stroke-width="2" stroke-linecap="round" stroke-linejoin="round"/>
</svg>
