<svg width="40" height="41" viewBox="0 0 40 41" fill="none" xmlns="http://www.w3.org/2000/svg">
<circle cx="20" cy="20" r="19.9167" fill="white" stroke="#86382A" stroke-width="0.166667"/>
<path d="M8.17286 19.2028C8.03952 20.7361 9.45063 21.7861 10.1729 22.1194L24.0062 28.8694C25.4506 29.1472 28.8062 29.4361 30.6728 28.3694C33.0062 27.0361 32.5895 24.8694 32.9228 23.1194C33.2562 21.3694 37.5895 19.2028 36.7562 14.5361C35.9228 9.86942 32.9228 10.5361 31.9228 7.70275C30.9228 4.86942 30.3395 3.53609 27.5062 2.36942C24.6728 1.20275 22.3395 3.28609 21.0895 3.53609C19.8395 3.78609 18.5895 2.70276 16.0895 2.78609C13.5895 2.86943 11.8395 4.70276 11.0895 6.78609C10.3395 8.86943 10.5721 8.79169 8.57206 10.2084C6.57206 11.625 8.17286 14.2028 8.17286 15.8694C8.17286 17.5361 8.33952 17.2861 8.17286 19.2028Z" fill="url(#paint0_linear_2424_2582)" stroke="#86382A" stroke-width="0.147973"/>
<path d="M14.8038 39.3181L16.4639 30.9512C15.4165 31.1943 12.9401 31.2766 11.4139 29.6606C9.50606 27.6406 9.2255 23.9933 9.61828 21.6927C9.87828 20.1699 10.2612 18.8191 10.6369 17.494C10.8287 16.8173 11.0187 16.1472 11.1894 15.4644C11.6944 13.4443 12.2555 11.761 13.5461 10.9193C14.7935 10.1058 17.0894 10.9173 19.8256 11.8846C19.9203 11.918 20.0155 11.9517 20.1112 11.9854C22.9728 12.9954 23.3656 14.0616 23.3656 15.4644C23.3656 16.8671 23.5901 17.4283 24.544 17.8772C25.3071 18.2363 25.4605 20.0842 25.4418 20.9633C25.5727 20.6079 26.0702 19.7401 27.0129 19.1116C28.1912 18.326 30.4918 18.7749 29.7062 21.4683C29.0778 23.623 27.0503 24.8724 26.1151 25.2278C26.8633 29.1048 28.109 34.1158 29.1573 37.7856C26.4138 39.2009 23.3007 40 20.001 40C18.2033 40 16.4611 39.7628 14.8038 39.3181Z" fill="#B97768" stroke="#86382A" stroke-width="0.147973"/>
<path opacity="0.5" d="M23.4488 16.5742C20.6044 14.8094 15.4757 13.5279 12.0156 12.8715C12.3887 12.037 12.8656 11.3618 13.5442 10.9193C14.7916 10.1058 17.0874 10.9173 19.8237 11.8846C19.9184 11.918 20.0135 11.9517 20.1092 11.9854C22.9709 12.9954 23.3637 14.0616 23.3637 15.4644C23.3637 15.9122 23.3866 16.2742 23.4488 16.5742Z" fill="url(#paint1_linear_2424_2582)" stroke="#86382A" stroke-width="0.147973"/>
<path d="M16.4612 30.9512C16.4529 30.9531 16.4444 30.9551 16.4359 30.957C17.1665 30.7208 18.2383 30.2668 19.2316 29.5362C20.587 28.5392 21.69 27.6585 22.072 27.3428C21.5055 29.072 19.4983 32.672 15.6973 34.8018L16.4612 30.9512C16.4612 30.9512 16.4612 30.9512 16.4612 30.9512Z" fill="url(#paint2_linear_2424_2582)"/>
<path d="M16.4612 30.9512C16.4529 30.9531 16.4444 30.9551 16.4359 30.957C17.1665 30.7208 18.2383 30.2668 19.2316 29.5362C20.587 28.5392 21.69 27.6585 22.072 27.3428C21.5055 29.072 19.4983 32.672 15.6973 34.8018L16.4612 30.9512ZM16.4612 30.9512C16.4612 30.9512 16.4612 30.9512 16.4612 30.9512Z" stroke="#86382A" stroke-width="0.147973"/>
<path d="M19.7165 23.5272L13.8809 25.8591C14.0024 26.4167 14.7562 27.4306 16.7987 27.025C18.8411 26.6195 19.5949 24.5242 19.7165 23.5272Z" fill="#F9FAFF" stroke="#86382A" stroke-width="0.147973"/>
<path d="M14.8356 17.8038C14.2444 20.9031 11.6271 22.2382 12.7595 22.9661C13.3879 23.3701 13.9191 23.5833 14.1061 23.6394" stroke="#86382A" stroke-width="0.373969" stroke-linecap="round"/>
<path d="M28.6635 20.1772C28.426 20.104 27.7558 20.1396 26.9751 20.8682C26.4369 21.3705 26.183 21.9015 26.0792 22.2823C26.0468 22.4014 26.1824 22.4509 26.2605 22.3554C26.6045 21.9349 27.1182 21.5026 27.5069 21.8012C28.0043 22.1833 27.2589 22.9215 26.8239 23.2428" stroke="#86382A" stroke-width="0.373969" stroke-linecap="round"/>
<defs>
<linearGradient id="paint0_linear_2424_2582" x1="10.5828" y1="2.00004" x2="25.9161" y2="17.8334" gradientUnits="userSpaceOnUse">
<stop stop-color="#5B2115"/>
<stop offset="1" stop-color="#3D160E"/>
</linearGradient>
<linearGradient id="paint1_linear_2424_2582" x1="14.0896" y1="10.5857" x2="26.6116" y2="17.1666" gradientUnits="userSpaceOnUse">
<stop stop-color="#86382A"/>
<stop offset="1" stop-color="#B97768"/>
</linearGradient>
<linearGradient id="paint2_linear_2424_2582" x1="21.665" y1="26.5" x2="23.7959" y2="30.8534" gradientUnits="userSpaceOnUse">
<stop stop-color="#86382A"/>
<stop offset="1" stop-color="#B97768"/>
</linearGradient>
</defs>
</svg>
