<svg width="40" height="41" viewBox="0 0 40 41" fill="none" xmlns="http://www.w3.org/2000/svg">
<circle cx="20" cy="20" r="19.9167" fill="white" stroke="#86382A" stroke-width="0.166667"/>
<path d="M33.2546 15.9393C32.5213 21.4727 27.2824 25.9671 24.7546 27.5227C20.0602 23.9393 10.8879 16.1227 11.7546 13.5227C12.8379 10.2727 14.6788 7.31293 20.6713 6.18934C26.6637 5.06575 34.1713 9.02268 33.2546 15.9393Z" fill="url(#paint0_linear_2514_2421)" stroke="#86382A" stroke-width="0.147973"/>
<path d="M14.7257 39.2689L16.3858 30.9019C15.3384 31.1451 12.862 31.2274 11.3357 29.6114C9.42794 27.5914 9.14738 23.9441 9.54016 21.6435C9.80016 20.1207 10.1831 18.7699 10.5588 17.4448C10.7506 16.7681 10.9406 16.098 11.1113 15.4151C11.6163 13.3951 12.1774 11.7118 13.468 10.8701C15.5633 8.93599 24.943 8.56598 26.7311 11.91C27.9229 14.1386 25.8436 18.781 25.2542 20.856C25.3851 20.5006 25.9921 19.6908 26.9348 19.0624C28.1131 18.2768 30.4137 18.7257 29.6281 21.4191C28.9997 23.5738 26.9722 24.8232 26.037 25.1786C26.7852 29.0556 28.0309 34.0666 29.0792 37.7364C26.3357 39.1517 23.2226 39.9508 19.9228 39.9508C18.1252 39.9508 16.383 39.7136 14.7257 39.2689Z" fill="#B97768" stroke="#86382A" stroke-width="0.147973"/>
<path d="M14.7871 38.9619C21.3425 36.1404 23.8855 32.3087 24.338 30.5227L16.1627 32.0287L14.7871 38.9619Z" fill="url(#paint1_linear_2514_2421)" stroke="#86382A" stroke-width="0.147973"/>
<path d="M14.7594 17.7545C14.1683 20.8538 11.5509 22.1889 12.6833 22.9168C13.3117 23.3208 13.8429 23.534 14.0299 23.5901" stroke="#86382A" stroke-width="0.373969" stroke-linecap="round"/>
<path d="M7.62946 30.9394C5.72946 26.1727 8.5878 20.6477 10.1711 18.8144C9.62944 20.856 9.31694 23.0227 9.62944 24.9394C13.7961 22.106 19.4211 24.3144 20.9211 25.9394C23.6298 23.919 25.392 20.8145 25.9706 18.6373C26.5815 18.481 26.4419 18.606 27.3378 18.3977C24.9628 21.6894 25.7199 22.9478 25.9211 24.9394C26.5295 30.9621 23.1127 35.788 16.9183 36.4114C13.2422 36.7813 9.3453 35.244 7.62946 30.9394Z" fill="url(#paint2_linear_2514_2421)" stroke="#86382A" stroke-width="0.147973"/>
<path d="M18.1303 25.6704L14.1387 27.2654C14.2218 27.6469 14.9041 28.3403 16.3011 28.0629C17.6982 27.7856 18.0471 26.3523 18.1303 25.6704Z" fill="#F9FAFF" stroke="#86382A" stroke-width="0.147973"/>
<path opacity="0.5" d="M27.0624 14.3032C20.596 10.2901 14.6816 11.0377 11.8418 13.0511C12.229 12.1111 12.729 11.3524 13.4685 10.8701C15.5639 8.93599 24.9436 8.56598 26.7317 11.91C27.0732 12.5486 27.1461 13.3854 27.0624 14.3032Z" fill="url(#paint3_linear_2514_2421)" stroke="#86382A" stroke-width="0.147973"/>
<path d="M28.5874 20.1279C28.3498 20.0546 27.6796 20.0903 26.8989 20.8189C26.3607 21.3212 26.1068 21.8522 26.003 22.233C25.9706 22.3521 26.1062 22.4016 26.1844 22.3061C26.5283 21.8855 27.042 21.4532 27.4307 21.7518C27.9282 22.134 27.1827 22.8722 26.7478 23.1935" stroke="#86382A" stroke-width="0.373969" stroke-linecap="round"/>
<defs>
<linearGradient id="paint0_linear_2514_2421" x1="13.9247" y1="5.98646" x2="26.0944" y2="17.6752" gradientUnits="userSpaceOnUse">
<stop stop-color="#5B2115"/>
<stop offset="1" stop-color="#3D160E"/>
</linearGradient>
<linearGradient id="paint1_linear_2514_2421" x1="16.5196" y1="30.5227" x2="25.9539" y2="33.7576" gradientUnits="userSpaceOnUse">
<stop stop-color="#86382A"/>
<stop offset="1" stop-color="#B97768"/>
</linearGradient>
<linearGradient id="paint2_linear_2514_2421" x1="9.09404" y1="18.3863" x2="19.2908" y2="29.3546" gradientUnits="userSpaceOnUse">
<stop stop-color="#5B2115"/>
<stop offset="1" stop-color="#3D160E"/>
</linearGradient>
<linearGradient id="paint3_linear_2514_2421" x1="14.6085" y1="9.40271" x2="23.521" y2="17.807" gradientUnits="userSpaceOnUse">
<stop stop-color="#86382A"/>
<stop offset="1" stop-color="#B97768"/>
</linearGradient>
</defs>
</svg>
