<svg width="40" height="41" viewBox="0 0 40 41" fill="none" xmlns="http://www.w3.org/2000/svg">
<circle cx="20" cy="20.0002" r="19.9167" fill="white" stroke="#86382A" stroke-width="0.166667"/>
<path d="M39.4555 15.3359C37.9285 17.5004 35.9293 17.2993 34.4738 17.1529C34.2285 17.1282 33.9987 17.1051 33.7891 17.0951C32.0391 17.0117 26.7058 11.6784 26.9558 6.76174C27.0712 4.49183 28.3023 3.18588 29.6593 2.48193C34.5131 5.16329 38.1338 9.80326 39.4555 15.3359Z" fill="url(#paint0_linear_2424_2603)" stroke="#86382A" stroke-width="0.147973"/>
<path d="M8.58564 14.4169C7.58564 17.1503 9.38047 19.814 10.0471 20.7584L23.5857 37.8336C23.8912 37.0281 28.169 35.3336 29.419 30.4169C34.3357 28.9169 33.669 26.6669 34.8357 23.1669C36.0023 19.6669 36.3805 11.3418 28.7971 7.42512C20.5857 2.33361 16.2523 6.66694 14.2523 9.00027C12.2523 11.3336 9.83564 11.0003 8.58564 14.4169Z" fill="url(#paint1_linear_2424_2603)" stroke="#86382A" stroke-width="0.147973"/>
<path d="M12.066 15.5419C10.8435 18.9054 7.33231 33.0714 16.4647 30.9514L14.8046 39.3183C16.4619 39.7631 18.2041 40.0002 20.0018 40.0002C23.3015 40.0002 26.4146 39.2011 29.1581 37.7859C28.1098 34.1161 26.8641 29.105 26.1159 25.228C27.0511 24.8727 29.0786 23.6232 29.707 21.4686C30.4926 18.7752 28.192 18.3263 27.0137 19.1119C26.071 19.7403 25.5735 20.6082 25.4426 20.9635C19.4827 21.4686 25.7885 17.0951 22.1219 15.0951C18.4552 13.0951 13.2885 12.1784 12.066 15.5419Z" fill="url(#paint2_linear_2424_2603)" stroke="#86382A" stroke-width="0.147973"/>
<mask id="mask0_2424_2603" style="mask-type:alpha" maskUnits="userSpaceOnUse" x="10" y="13" width="20" height="28">
<path d="M12.066 15.5419C10.8435 18.9054 7.33231 33.0714 16.4647 30.9514L14.8046 39.3183C16.4619 39.7631 18.2041 40.0002 20.0018 40.0002C23.3015 40.0002 26.4146 39.2011 29.1581 37.7859C28.1098 34.1161 26.8641 29.105 26.1159 25.228C27.0511 24.8727 29.0786 23.6232 29.707 21.4686C30.4926 18.7752 28.192 18.3263 27.0137 19.1119C26.071 19.7403 25.5735 20.6082 25.4426 20.9635C19.4827 21.4686 25.7885 17.0951 22.1219 15.0951C18.4552 13.0951 13.2885 12.1784 12.066 15.5419Z" fill="url(#paint3_linear_2424_2603)" stroke="#86382A" stroke-width="0.147973"/>
</mask>
<g mask="url(#mask0_2424_2603)">
<path d="M16.5859 15.6669C14.6649 15.4814 13.0026 15.4169 11.6693 16.3336L11.3359 15.0002L12.8359 13.5002L17.7526 12.7502L22.9193 15.0002L23.8359 16.3336L23.5026 18.7502C21.5859 17.4169 20.6693 16.0612 16.5859 15.6669Z" fill="url(#paint4_linear_2424_2603)" stroke="#86382A" stroke-width="0.147973"/>
</g>
<path d="M16.4652 30.9514C16.4568 30.9534 16.4483 30.9553 16.4398 30.9572C17.1704 30.721 18.2422 30.267 19.2355 29.5364C20.5909 28.5394 21.6939 27.6587 22.0759 27.343C21.5094 29.0723 19.5022 32.6722 15.7012 34.802L16.4652 30.9514C16.4651 30.9514 16.4652 30.9514 16.4652 30.9514Z" fill="url(#paint5_linear_2424_2603)"/>
<path d="M16.4652 30.9514C16.4568 30.9534 16.4483 30.9553 16.4398 30.9572C17.1704 30.721 18.2422 30.267 19.2355 29.5364C20.5909 28.5394 21.6939 27.6587 22.0759 27.343C21.5094 29.0723 19.5022 32.6722 15.7012 34.802L16.4652 30.9514ZM16.4652 30.9514C16.4651 30.9514 16.4652 30.9514 16.4652 30.9514Z" stroke="#86382A" stroke-width="0.147973"/>
<path d="M28.6655 20.1774C28.428 20.1042 27.7577 20.1399 26.977 20.8685C26.4388 21.3707 26.1849 21.9017 26.0812 22.2826C26.0487 22.4017 26.1844 22.4512 26.2625 22.3556C26.6064 21.9351 27.1202 21.5028 27.5088 21.8014C28.0063 22.1835 27.2608 22.9218 26.8259 23.2431" stroke="#86382A" stroke-width="0.373969" stroke-linecap="round"/>
<path d="M15.3375 19.6375C14.7464 22.7367 12.1291 24.0718 13.2614 24.7997C13.8899 25.2037 14.421 25.4169 14.6081 25.4731" stroke="#86382A" stroke-width="0.373969" stroke-linecap="round"/>
<path d="M20.5456 25.2846L15.555 26.7785C15.5545 27.3445 15.9724 28.4469 17.6483 28.3285C19.3242 28.2101 20.2781 26.2499 20.5456 25.2846Z" fill="#F9FAFF" stroke="#86382A" stroke-width="0.147973"/>
<defs>
<linearGradient id="paint0_linear_2424_2603" x1="30.3582" y1="2.65997" x2="35.1674" y2="12.5711" gradientUnits="userSpaceOnUse">
<stop stop-color="#832633"/>
<stop offset="1" stop-color="#450820"/>
</linearGradient>
<linearGradient id="paint1_linear_2424_2603" x1="16.0824" y1="5.92356" x2="25.0436" y2="25.8336" gradientUnits="userSpaceOnUse">
<stop stop-color="#832633"/>
<stop offset="1" stop-color="#450820"/>
</linearGradient>
<linearGradient id="paint2_linear_2424_2603" x1="15.2525" y1="10.9239" x2="25.5233" y2="34.2964" gradientUnits="userSpaceOnUse">
<stop stop-color="#FDC4A6"/>
<stop offset="1" stop-color="#FBB692"/>
</linearGradient>
<linearGradient id="paint3_linear_2424_2603" x1="15.2525" y1="10.9239" x2="25.5233" y2="34.2964" gradientUnits="userSpaceOnUse">
<stop stop-color="#FDC4A6"/>
<stop offset="1" stop-color="#FBB692"/>
</linearGradient>
<linearGradient id="paint4_linear_2424_2603" x1="13.6034" y1="12.7502" x2="13.5293" y2="19.4344" gradientUnits="userSpaceOnUse">
<stop stop-color="#FD877A"/>
<stop offset="1" stop-color="#FD877A" stop-opacity="0"/>
</linearGradient>
<linearGradient id="paint5_linear_2424_2603" x1="16.8575" y1="27.343" x2="16.6331" y2="35.6475" gradientUnits="userSpaceOnUse">
<stop stop-color="#FD877A"/>
<stop offset="1" stop-color="#FD877A" stop-opacity="0"/>
</linearGradient>
</defs>
</svg>
