<svg width="40" height="41" viewBox="0 0 40 41" fill="none" xmlns="http://www.w3.org/2000/svg">
<circle cx="20" cy="20.0002" r="19.9167" fill="white" stroke="#86382A" stroke-width="0.166667"/>
<path d="M3.14648 30.7747C3.99891 30.2925 5.11551 29.907 6.48011 29.8753C5.25788 29.6531 2.9801 28.4253 3.64677 25.292C4.14799 22.9362 5.97566 22.3893 7.87867 21.8198C9.13962 21.4425 10.4337 21.0552 11.3968 20.1253C13.3301 18.2586 14.5912 16.4031 14.9801 15.7086L12.0634 18.7086C10.619 18.8475 7.48011 18.2753 6.48011 14.8753C5.23011 10.6253 8.64678 7.79197 11.3968 7.20863C12.6927 6.93374 13.9331 7.08449 15.2314 7.24227C16.6881 7.41931 18.2176 7.6052 19.9801 7.20863C20.3851 7.1175 20.832 6.99437 21.3141 6.86154C24.7998 5.90116 30.1282 4.43305 34.8134 10.8753C38.3635 15.7567 34.492 22.115 31.1129 27.6646C29.4156 30.4521 27.8426 33.0356 27.3968 35.1253L19.0755 39.9794C12.3818 39.6751 6.54564 36.0804 3.14648 30.7747Z" fill="url(#paint0_linear_2424_2592)" stroke="#86382A" stroke-width="0.147973"/>
<path d="M12.0629 15.5419C10.8834 20.2455 7.3292 33.0714 16.4616 30.9514L14.8015 39.3183C16.4588 39.7631 18.201 40.0002 19.9987 40.0002C23.2984 40.0002 26.4115 39.2011 29.155 37.7859C28.1067 34.1161 26.861 29.105 26.1128 25.228C27.048 24.8727 29.0755 23.6232 29.7039 21.4686C30.4895 18.7752 28.1889 18.3263 27.0106 19.1119C26.0679 19.7403 25.5704 20.6082 25.4395 20.9635C19.4796 21.4686 16.4616 16.5419 16.4616 11.6252L12.0629 15.5419Z" fill="#B97768" stroke="#86382A" stroke-width="0.147973"/>
<mask id="mask0_2424_2592" style="mask-type:alpha" maskUnits="userSpaceOnUse" x="10" y="11" width="20" height="30">
<path d="M12.0629 15.5419C10.8834 20.2455 7.3292 33.0714 16.4616 30.9514L14.8015 39.3183C16.4588 39.7631 18.201 40.0002 19.9987 40.0002C23.2984 40.0002 26.4115 39.2011 29.155 37.7859C28.1067 34.1161 26.861 29.105 26.1128 25.228C27.048 24.8727 29.0755 23.6232 29.7039 21.4686C30.4895 18.7752 28.1889 18.3263 27.0106 19.1119C26.0679 19.7403 25.5704 20.6082 25.4395 20.9635C19.4796 21.4686 16.4616 16.5419 16.4616 11.6252L12.0629 15.5419Z" fill="#B97768" stroke="#86382A" stroke-width="0.147973"/>
</mask>
<g mask="url(#mask0_2424_2592)">
<path d="M16.8314 14.0002L11.498 17.8336L11.748 15.5002L16.498 11.2502L16.8314 14.0002Z" fill="url(#paint1_linear_2424_2592)" stroke="#86382A" stroke-width="0.147973"/>
</g>
<path d="M16.4632 30.9514C16.4548 30.9534 16.4464 30.9553 16.4378 30.9572C17.1684 30.721 18.2402 30.267 19.2335 29.5364C20.589 28.5394 21.6919 27.6587 22.074 27.343C21.5074 29.0723 19.5003 32.6722 15.6992 34.802L16.4632 30.9514C16.4632 30.9514 16.4632 30.9514 16.4632 30.9514Z" fill="url(#paint2_linear_2424_2592)"/>
<path d="M16.4632 30.9514C16.4548 30.9534 16.4464 30.9553 16.4378 30.9572C17.1684 30.721 18.2402 30.267 19.2335 29.5364C20.589 28.5394 21.6919 27.6587 22.074 27.343C21.5074 29.0723 19.5003 32.6722 15.6992 34.802L16.4632 30.9514ZM16.4632 30.9514C16.4632 30.9514 16.4632 30.9514 16.4632 30.9514Z" stroke="#86382A" stroke-width="0.147973"/>
<path d="M28.6635 20.1776C28.426 20.1043 27.7558 20.14 26.9751 20.8686C26.4369 21.3709 26.183 21.9019 26.0792 22.2827C26.0468 22.4018 26.1824 22.4513 26.2605 22.3557C26.6045 21.9352 27.1182 21.5029 27.5069 21.8015C28.0043 22.1837 27.2589 22.9219 26.8239 23.2432" stroke="#86382A" stroke-width="0.373969" stroke-linecap="round"/>
<path d="M15.3336 19.6375C14.7425 22.7367 12.1252 24.0718 13.2575 24.7997C13.8859 25.2037 14.4171 25.4169 14.6042 25.4731" stroke="#86382A" stroke-width="0.373969" stroke-linecap="round"/>
<defs>
<linearGradient id="paint0_linear_2424_2592" x1="6.55221" y1="5.98266" x2="25.7286" y2="23.8222" gradientUnits="userSpaceOnUse">
<stop stop-color="#5B2115"/>
<stop offset="1" stop-color="#3D160E"/>
</linearGradient>
<linearGradient id="paint1_linear_2424_2592" x1="16.4908" y1="10.5064" x2="18.4325" y2="14.2667" gradientUnits="userSpaceOnUse">
<stop stop-color="#86382A"/>
<stop offset="1" stop-color="#B97768"/>
</linearGradient>
<linearGradient id="paint2_linear_2424_2592" x1="21.6669" y1="26.5003" x2="23.7978" y2="30.8536" gradientUnits="userSpaceOnUse">
<stop stop-color="#86382A"/>
<stop offset="1" stop-color="#B97768"/>
</linearGradient>
</defs>
</svg>
