<svg width="40" height="41" viewBox="0 0 40 41" fill="none" xmlns="http://www.w3.org/2000/svg">
<circle cx="20" cy="20" r="19.9167" fill="white" stroke="#86382A" stroke-width="0.166667"/>
<path d="M4.91376 33.1314C4.43491 28.3104 8.46992 25.237 12.7591 21.9699C13.3005 21.5576 13.8458 21.1422 14.3866 20.7199C5.06999 15.16 8.77194 3.47529 19.2198 4.37123C31.9952 0.72933 41.0325 10.4237 33.1442 24.3841C33.6787 24.9023 34.1849 25.3625 34.6612 25.7955C35.9116 26.9323 36.9554 27.8813 37.7634 29.1983C35.0137 34.498 29.9619 38.4111 23.9325 39.6135C22.08 39.8022 20.2592 39.8286 18.5788 39.6952L18.5627 39.6939C18.5515 39.693 18.5404 39.6921 18.5293 39.6912C18.5136 39.6899 18.4978 39.6886 18.4821 39.6873L18.4803 39.6872L18.4323 39.6831C16.6875 39.5319 14.5074 39.1099 12.3667 38.492C9.48035 37.2993 6.93407 35.4504 4.91376 33.1314Z" fill="url(#paint0_linear_2424_2570)" stroke="#86382A" stroke-width="0.147973"/>
<path d="M15.0024 39.3704C14.936 39.3533 14.8697 39.3359 14.8035 39.3181L16.4636 30.9512C7.59039 33.011 9.86131 20.9112 11.0793 15.9083C14.3243 7.625 19.7674 20.036 24.6256 18.5417C25.0006 19.6875 25.1256 20.125 25.4414 20.9633C25.5724 20.6079 26.0699 19.7401 27.0126 19.1116C28.1909 18.3261 30.4915 18.775 29.7059 21.4683C29.0775 23.623 27.05 24.8724 26.1148 25.2278C25.1139 28.8918 20.0185 37.6742 26.1148 39.0482C24.1876 39.6663 22.1331 40 20.0007 40C18.2748 40 16.6 39.7814 15.0024 39.3704Z" fill="url(#paint1_linear_2424_2570)" stroke="#86382A" stroke-width="0.147973"/>
<mask id="mask0_2424_2570" style="mask-type:alpha" maskUnits="userSpaceOnUse" x="9" y="12" width="21" height="29">
<path d="M15.0024 39.3704C14.936 39.3533 14.8697 39.3359 14.8035 39.3181L16.4636 30.9512C7.59039 33.011 9.86131 20.9112 11.0793 15.9083C14.3243 7.625 19.7674 20.036 24.6256 18.5417C25.0006 19.6875 25.1256 20.125 25.4414 20.9633C25.5724 20.6079 26.0699 19.7401 27.0126 19.1116C28.1909 18.3261 30.4915 18.775 29.7059 21.4683C29.0775 23.623 27.05 24.8724 26.1148 25.2278C25.1139 28.8918 20.0185 37.6742 26.1148 39.0482C24.1876 39.6663 22.1331 40 20.0007 40C18.2748 40 16.6 39.7814 15.0024 39.3704Z" fill="url(#paint2_linear_2424_2570)" stroke="#86382A" stroke-width="0.147973"/>
</mask>
<g mask="url(#mask0_2424_2570)">
<path d="M15.8333 16.1243C13.9 14.1746 11.6389 15.7181 10.75 16.7336L11.9167 11.25L16.5833 12.5701C20.1667 14.1949 26.7667 17.9115 24.5 19.78C21.6667 22.1156 18.25 18.5614 15.8333 16.1243Z" fill="url(#paint3_linear_2424_2570)" stroke="#86382A" stroke-width="0.147973"/>
</g>
<path d="M15.1676 18.6372C14.5765 21.7365 11.9591 23.0715 13.0915 23.7995C13.7199 24.2035 14.2511 24.4167 14.4381 24.4728" stroke="#86382A" stroke-width="0.373969" stroke-linecap="round"/>
<path d="M16.082 27.1251C16.7765 27.2084 18.332 27.0084 18.9987 25.5417" stroke="#86382A" stroke-width="0.373969" stroke-linecap="round"/>
<path d="M16.4632 30.9512C16.4548 30.9531 16.4464 30.9551 16.4378 30.957C17.1684 30.7208 18.2402 30.2668 19.2335 29.5362C20.589 28.5392 21.6919 27.6585 22.074 27.3428C21.5074 29.072 19.5003 32.672 15.6992 34.8018L16.4632 30.9512C16.4632 30.9512 16.4632 30.9512 16.4632 30.9512Z" fill="url(#paint4_linear_2424_2570)"/>
<path d="M16.4632 30.9512C16.4548 30.9531 16.4464 30.9551 16.4378 30.957C17.1684 30.7208 18.2402 30.2668 19.2335 29.5362C20.589 28.5392 21.6919 27.6585 22.074 27.3428C21.5074 29.072 19.5003 32.672 15.6992 34.8018L16.4632 30.9512ZM16.4632 30.9512C16.4632 30.9512 16.4632 30.9512 16.4632 30.9512Z" stroke="#86382A" stroke-width="0.147973"/>
<path d="M28.6635 20.1772C28.426 20.104 27.7558 20.1396 26.9751 20.8682C26.4369 21.3705 26.183 21.9015 26.0792 22.2823C26.0468 22.4014 26.1824 22.4509 26.2605 22.3554C26.6045 21.9349 27.1182 21.5026 27.5069 21.8012C28.0043 22.1833 27.2589 22.9215 26.8239 23.2428" stroke="#86382A" stroke-width="0.373969" stroke-linecap="round"/>
<defs>
<linearGradient id="paint0_linear_2424_2570" x1="14.0036" y1="5.75662" x2="18.1301" y2="17.2353" gradientUnits="userSpaceOnUse">
<stop stop-color="#832633"/>
<stop offset="1" stop-color="#450820"/>
</linearGradient>
<linearGradient id="paint1_linear_2424_2570" x1="15.2514" y1="10.9237" x2="25.5222" y2="34.2962" gradientUnits="userSpaceOnUse">
<stop stop-color="#FDC4A6"/>
<stop offset="1" stop-color="#FBB692"/>
</linearGradient>
<linearGradient id="paint2_linear_2424_2570" x1="15.2514" y1="10.9237" x2="25.5222" y2="34.2962" gradientUnits="userSpaceOnUse">
<stop stop-color="#FDC4A6"/>
<stop offset="1" stop-color="#FBB692"/>
</linearGradient>
<linearGradient id="paint3_linear_2424_2570" x1="13.3283" y1="11.25" x2="13.172" y2="21.6006" gradientUnits="userSpaceOnUse">
<stop stop-color="#FD877A"/>
<stop offset="1" stop-color="#FD877A" stop-opacity="0"/>
</linearGradient>
<linearGradient id="paint4_linear_2424_2570" x1="16.8556" y1="27.3428" x2="16.6311" y2="35.6473" gradientUnits="userSpaceOnUse">
<stop stop-color="#FD877A"/>
<stop offset="1" stop-color="#FD877A" stop-opacity="0"/>
</linearGradient>
</defs>
</svg>
