<svg width="40" height="41" viewBox="0 0 40 41" fill="none" xmlns="http://www.w3.org/2000/svg">
<circle cx="20" cy="20" r="19.9167" fill="white" stroke="#86382A" stroke-width="0.166667"/>
<path d="M33.3686 12.9396C34.583 15.6568 35.8403 20.4455 37.0999 25.2429C37.4045 26.4034 37.7094 27.5644 38.0137 28.6967C34.7786 35.3862 27.9273 40.0001 19.9984 40.0001C15.4439 40.0001 11.245 38.4777 7.88281 35.9141C8.96486 30.3684 10.641 22.8464 12.4337 17.2847L11.0797 15.9887C13.2956 3.55131 29.8583 3.13095 33.3686 12.9396Z" fill="url(#paint0_linear_2424_2556)" stroke="#86382A" stroke-width="0.147973"/>
<path fill-rule="evenodd" clip-rule="evenodd" d="M14.8036 39.318L16.4636 30.9514C7.33118 33.0714 10.0035 20.1924 11.183 15.4888H25.7486C25.7309 15.7746 25.7149 16.0313 25.7001 16.2695C25.6099 17.7153 25.5621 18.4811 25.4414 20.9635C25.5724 20.6081 26.0699 19.7403 27.0126 19.1118C28.1909 18.3263 30.4915 18.7751 29.7059 21.4685C29.0775 23.6232 27.05 24.8726 26.1148 25.228V39.0488C24.1931 39.665 22.1449 39.9985 20.019 40.0002C20.0129 40.0002 20.0068 40.0002 20.0006 40.0002C19.8285 40.0002 19.6568 39.998 19.4856 39.9937C19.357 39.9904 19.2287 39.986 19.1007 39.9803C17.6208 39.9147 16.1828 39.6882 14.8036 39.318Z" fill="url(#paint1_linear_2424_2556)"/>
<path d="M16.4636 30.9514L16.5361 30.9658L16.5584 30.8534L16.4468 30.8793L16.4636 30.9514ZM14.8036 39.318L14.731 39.3036L14.7175 39.3715L14.7844 39.3895L14.8036 39.318ZM11.183 15.4888V15.4148H11.1253L11.1113 15.4708L11.183 15.4888ZM25.7486 15.4888L25.8225 15.4933L25.8273 15.4148H25.7486V15.4888ZM25.7001 16.2695L25.7739 16.2741L25.7001 16.2695ZM25.4414 20.9635L25.3675 20.9599L25.5109 20.9891L25.4414 20.9635ZM27.0126 19.1118L26.9715 19.0503L27.0126 19.1118ZM29.7059 21.4685L29.6349 21.4478L29.7059 21.4685ZM26.1148 25.228L26.0885 25.1588L26.0408 25.1769V25.228H26.1148ZM26.1148 39.0488L26.1374 39.1193L26.1888 39.1028V39.0488H26.1148ZM20.019 40.0002L20.0187 40.0742H20.0191L20.019 40.0002ZM19.4856 39.9937L19.4838 40.0677H19.4838L19.4856 39.9937ZM19.1007 39.9803L19.0974 40.0542L19.1007 39.9803ZM16.391 30.937L14.731 39.3036L14.8761 39.3324L16.5361 30.9658L16.391 30.937ZM11.1113 15.4708C10.5216 17.8223 9.55535 22.2291 9.88265 25.7857C10.0462 27.5634 10.5341 29.1431 11.5684 30.1443C12.6074 31.15 14.1815 31.5571 16.4803 31.0234L16.4468 30.8793C14.1795 31.4056 12.663 30.9979 11.6713 30.038C10.6751 29.0736 10.1924 27.5372 10.03 25.7721C9.70525 22.2433 10.665 17.8588 11.2548 15.5068L11.1113 15.4708ZM25.7486 15.4148H11.183V15.5628H25.7486V15.4148ZM25.7739 16.2741C25.7888 16.0359 25.8048 15.7792 25.8225 15.4933L25.6748 15.4842C25.6571 15.77 25.6411 16.0267 25.6262 16.2649L25.7739 16.2741ZM25.5153 20.9671C25.636 18.4851 25.6837 17.7197 25.7739 16.2741L25.6262 16.2649C25.536 17.711 25.4882 18.4771 25.3675 20.9599L25.5153 20.9671ZM26.9715 19.0503C26.0143 19.6884 25.5077 20.5696 25.372 20.9379L25.5109 20.9891C25.637 20.6466 26.1254 19.7922 27.0536 19.1734L26.9715 19.0503ZM29.7769 21.4892C29.976 20.8066 29.9819 20.2583 29.853 19.8321C29.7237 19.4046 29.4601 19.1054 29.1319 18.9211C28.4802 18.5549 27.5806 18.6442 26.9715 19.0503L27.0536 19.1734C27.6229 18.7939 28.4627 18.7148 29.0595 19.0501C29.3555 19.2164 29.5935 19.4854 29.7114 19.875C29.8297 20.2659 29.8286 20.7838 29.6349 21.4478L29.7769 21.4892ZM26.1411 25.2971C26.617 25.1163 27.3655 24.7104 28.0746 24.0782C28.784 23.4458 29.4578 22.5835 29.7769 21.4892L29.6349 21.4478C29.3256 22.5082 28.6714 23.348 27.9761 23.9678C27.2806 24.5878 26.5477 24.9843 26.0885 25.1588L26.1411 25.2971ZM26.1888 39.0488V25.228H26.0408V39.0488H26.1888ZM26.0922 38.9784C24.1777 39.5922 22.1371 39.9245 20.019 39.9263L20.0191 40.0742C22.1527 40.0724 24.2085 39.7378 26.1374 39.1193L26.0922 38.9784ZM20.0006 40.0742C20.0067 40.0742 20.0127 40.0742 20.0187 40.0742L20.0194 39.9263C20.0131 39.9262 20.0069 39.9262 20.0006 39.9262V40.0742ZM19.4838 40.0677C19.6555 40.072 19.8278 40.0742 20.0006 40.0742V39.9262C19.8291 39.9262 19.658 39.9241 19.4875 39.9197L19.4838 40.0677ZM19.4875 39.9197C19.3594 39.9165 19.2315 39.912 19.104 39.9064L19.0974 40.0542C19.2259 40.0599 19.3547 40.0644 19.4838 40.0677L19.4875 39.9197ZM19.104 39.9064C17.6295 39.841 16.1968 39.6154 14.8228 39.2465L14.7844 39.3895C16.1687 39.7611 17.6121 39.9883 19.0974 40.0542L19.104 39.9064Z" fill="#86382A"/>
<path d="M16.4612 30.9512C16.4529 30.9531 16.4444 30.9551 16.4359 30.957C17.1665 30.7208 18.2383 30.2668 19.2316 29.5362C20.587 28.5392 21.69 27.6585 22.072 27.3428C21.5055 29.072 19.4983 32.672 15.6973 34.8018L16.4612 30.9512C16.4612 30.9512 16.4612 30.9512 16.4612 30.9512Z" fill="url(#paint2_linear_2424_2556)"/>
<path d="M16.4612 30.9512C16.4529 30.9531 16.4444 30.9551 16.4359 30.957C17.1665 30.7208 18.2383 30.2668 19.2316 29.5362C20.587 28.5392 21.69 27.6585 22.072 27.3428C21.5055 29.072 19.4983 32.672 15.6973 34.8018L16.4612 30.9512ZM16.4612 30.9512C16.4612 30.9512 16.4612 30.9512 16.4612 30.9512Z" stroke="#86382A" stroke-width="0.147973"/>
<path d="M25.7474 15.5001H11.1641L10.6641 17.7501H25.5807L25.7474 15.5001Z" fill="url(#paint3_linear_2424_2556)" stroke="#86382A" stroke-width="0.147973"/>
<path d="M28.6616 20.1773C28.4241 20.1041 27.7538 20.1398 26.9731 20.8684C26.4349 21.3706 26.181 21.9016 26.0773 22.2824C26.0448 22.4015 26.1804 22.451 26.2586 22.3555C26.6025 21.935 27.1163 21.5027 27.5049 21.8013C28.0024 22.1834 27.2569 22.9216 26.822 23.243" stroke="#86382A" stroke-width="0.373969" stroke-linecap="round"/>
<circle cx="11.4974" cy="19.3636" r="3.58333" stroke="#86382A" stroke-width="0.373969" stroke-linecap="round"/>
<circle cx="20.6634" cy="19.3636" r="3.58333" stroke="#86382A" stroke-width="0.373969" stroke-linecap="round"/>
<path d="M15.3336 19.6372C14.7425 22.7365 12.1252 24.0715 13.2575 24.7995C13.8859 25.2035 14.4171 25.4167 14.6042 25.4728" stroke="#86382A" stroke-width="0.373969" stroke-linecap="round"/>
<path d="M15.1836 19.1763C15.4996 18.8603 16.3211 18.418 17.0794 19.1763" stroke="#86382A" stroke-width="0.373969" stroke-linecap="round"/>
<defs>
<linearGradient id="paint0_linear_2424_2556" x1="16.0993" y1="6.48048" x2="26.8389" y2="29.6645" gradientUnits="userSpaceOnUse">
<stop stop-color="#832633"/>
<stop offset="1" stop-color="#450820"/>
</linearGradient>
<linearGradient id="paint1_linear_2424_2556" x1="15.2514" y1="10.9239" x2="25.5222" y2="34.2964" gradientUnits="userSpaceOnUse">
<stop stop-color="#FDC4A6"/>
<stop offset="1" stop-color="#FBB692"/>
</linearGradient>
<linearGradient id="paint2_linear_2424_2556" x1="16.8536" y1="27.3428" x2="16.6292" y2="35.6473" gradientUnits="userSpaceOnUse">
<stop stop-color="#FD877A"/>
<stop offset="1" stop-color="#FD877A" stop-opacity="0"/>
</linearGradient>
<linearGradient id="paint3_linear_2424_2556" x1="13.4002" y1="15.5001" x2="13.3915" y2="18.007" gradientUnits="userSpaceOnUse">
<stop stop-color="#FD877A"/>
<stop offset="1" stop-color="#FD877A" stop-opacity="0"/>
</linearGradient>
</defs>
</svg>
