<svg width="40" height="41" viewBox="0 0 40 41" fill="none" xmlns="http://www.w3.org/2000/svg">
<circle cx="20" cy="20" r="19.9167" fill="white" stroke="#86382A" stroke-width="0.166667"/>
<path d="M33.9173 18.6554C33.2524 24.2162 29.0562 29.1554 26.6673 30.9054L11.084 15.9887C13.6673 1.4887 35.7507 3.32203 33.9173 18.6554Z" fill="url(#paint0_linear_2424_2544)" stroke="#86382A" stroke-width="0.147973"/>
<path d="M11.185 15.4886C10.0054 20.1922 7.33314 33.0713 16.4655 30.9512L14.8055 39.3182C16.4627 39.7629 18.205 40.0001 20.0026 40.0001C23.3023 40.0001 26.4155 39.201 29.159 37.7857C28.1107 34.1159 26.8649 29.1049 26.1167 25.2279C27.0519 24.8725 29.0794 23.6231 29.7079 21.4684C30.4934 18.775 28.1929 18.3261 27.0145 19.1117C26.0718 19.7401 25.5743 20.608 25.4434 20.9634C25.5839 18.072 25.6256 17.5095 25.7506 15.4886L11.185 15.4886Z" fill="#B97768" stroke="#86382A" stroke-width="0.147973"/>
<path opacity="0.5" d="M25.7513 15.5001H11.168L10.668 17.7501H25.5846L25.7513 15.5001Z" fill="url(#paint1_linear_2424_2544)" stroke="#86382A" stroke-width="0.147973"/>
<path d="M16.4652 30.9512C16.4568 30.9531 16.4483 30.9551 16.4398 30.957C17.1704 30.7208 18.2422 30.2668 19.2355 29.5362C20.5909 28.5392 21.6939 27.6585 22.0759 27.3428C21.5094 29.072 19.5022 32.672 15.7012 34.8018L16.4652 30.9512C16.4651 30.9512 16.4652 30.9512 16.4652 30.9512Z" fill="url(#paint2_linear_2424_2544)"/>
<path d="M16.4652 30.9512C16.4568 30.9531 16.4483 30.9551 16.4398 30.957C17.1704 30.7208 18.2422 30.2668 19.2355 29.5362C20.5909 28.5392 21.6939 27.6585 22.0759 27.3428C21.5094 29.072 19.5022 32.672 15.7012 34.8018L16.4652 30.9512ZM16.4652 30.9512C16.4651 30.9512 16.4652 30.9512 16.4652 30.9512Z" stroke="#86382A" stroke-width="0.147973"/>
<path d="M28.6655 20.1773C28.428 20.1041 27.7577 20.1398 26.977 20.8684C26.4388 21.3706 26.1849 21.9016 26.0812 22.2824C26.0487 22.4015 26.1844 22.451 26.2625 22.3555C26.6064 21.935 27.1202 21.5027 27.5088 21.8013C28.0063 22.1834 27.2608 22.9216 26.8259 23.243" stroke="#86382A" stroke-width="0.373969" stroke-linecap="round"/>
<circle cx="11.4993" cy="19.3636" r="3.58333" stroke="#86382A" stroke-width="0.373969" stroke-linecap="round"/>
<circle cx="20.6654" cy="19.3636" r="3.58333" stroke="#86382A" stroke-width="0.373969" stroke-linecap="round"/>
<path d="M15.3375 19.6372C14.7464 22.7365 12.1291 24.0715 13.2614 24.7995C13.8899 25.2035 14.421 25.4167 14.6081 25.4728" stroke="#86382A" stroke-width="0.373969" stroke-linecap="round"/>
<path d="M15.1875 19.1763C15.5035 18.8603 16.325 18.418 17.0833 19.1763" stroke="#86382A" stroke-width="0.373969" stroke-linecap="round"/>
<defs>
<linearGradient id="paint0_linear_2424_2544" x1="13.4461" y1="6.05542" x2="27.391" y2="18.3648" gradientUnits="userSpaceOnUse">
<stop stop-color="#5B2115"/>
<stop offset="1" stop-color="#3D160E"/>
</linearGradient>
<linearGradient id="paint1_linear_2424_2544" x1="13.4041" y1="15.5001" x2="16.6529" y2="22.0987" gradientUnits="userSpaceOnUse">
<stop stop-color="#86382A"/>
<stop offset="1" stop-color="#B97768"/>
</linearGradient>
<linearGradient id="paint2_linear_2424_2544" x1="21.6689" y1="26.5" x2="23.7998" y2="30.8534" gradientUnits="userSpaceOnUse">
<stop stop-color="#86382A"/>
<stop offset="1" stop-color="#B97768"/>
</linearGradient>
</defs>
</svg>
