<svg width="40" height="41" viewBox="0 0 40 41" fill="none" xmlns="http://www.w3.org/2000/svg">
<circle cx="20" cy="20" r="19.9167" fill="white" stroke="#86382A" stroke-width="0.166667"/>
<path d="M17.3314 3.82187C23.0479 2.44567 30.6647 3.40521 33.248 10.3219C36.5787 19.2395 25.6647 24.0719 27.3314 33.9885L18.3314 23.4052C14.8036 23.5719 7.64805 23.5219 7.24805 21.9885C6.84805 20.4552 8.30359 18.2941 9.08137 17.4052C3.58138 18.9677 7.24805 14.426 9.08137 13.0719C7.83137 13.5996 5.4147 14.3385 5.74803 13.0719C6.1647 11.4885 9.76525 5.64334 17.3314 3.82187Z" fill="url(#paint0_linear_2424_2535)" stroke="#86382A" stroke-width="0.147973"/>
<path d="M10.7125 17.2234C13.4532 16.7903 19.0019 15.5754 23.8312 13.4053C22.8312 14.1553 20.8062 15.9136 20.7062 16.9469C20.6062 17.9803 24.2945 16.7108 26.114 16.2803C25.7478 18.0719 25.5395 19.5511 25.3312 20.9053C25.4621 20.5499 26.0691 19.7401 27.0118 19.1116C28.1901 18.3261 30.4907 18.775 29.7051 21.4683C29.0767 23.623 27.0492 24.8724 26.114 25.2278C26.8622 29.1048 28.1079 34.1158 29.1562 37.7856C26.4127 39.2009 23.2996 40 19.9998 40C18.2022 40 16.46 39.7629 14.8027 39.3181L16.4628 30.9512C10.9495 32.2311 7.53951 31.1969 9.61717 21.6928C9.87717 20.1699 10.2601 18.8192 10.6358 17.4941C10.6614 17.4037 10.6869 17.3135 10.7125 17.2234Z" fill="#FFE1C6" stroke="#86382A" stroke-width="0.147973"/>
<path d="M14.8356 17.8037C14.2444 20.903 11.6271 22.238 12.7595 22.966C13.3879 23.37 13.9191 23.5832 14.1061 23.6393" stroke="#86382A" stroke-width="0.373969" stroke-linecap="round"/>
<path d="M21.3684 23.7017L14.8926 25.3655C14.9448 25.9705 15.8588 27.1764 18.0693 27.0273C20.2797 26.8783 21.104 24.737 21.3684 23.7017Z" fill="#F9FAFF" stroke="#86382A" stroke-width="0.147973"/>
<path d="M15.7754 34.4208L22.2072 28.2385C21.0309 29.335 17.7905 30.6135 16.4638 30.9511L15.7754 34.4208Z" fill="url(#paint1_linear_2424_2535)" stroke="#86382A" stroke-width="0.147973"/>
<path d="M28.6635 20.1771C28.426 20.1038 27.7558 20.1395 26.9751 20.8681C26.4369 21.3704 26.183 21.9014 26.0792 22.2822C26.0468 22.4013 26.1824 22.4508 26.2605 22.3552C26.6045 21.9347 27.1182 21.5024 27.5069 21.801C28.0043 22.1832 27.2589 22.9214 26.8239 23.2427" stroke="#86382A" stroke-width="0.373969" stroke-linecap="round"/>
<path d="M21.1681 14.4875C17.0972 15.9862 12.9706 16.8659 10.7222 17.2218C10.7191 17.2223 10.716 17.2228 10.7129 17.2233C10.6874 17.3134 10.6618 17.4036 10.6362 17.494C10.4992 17.9773 10.3612 18.4642 10.2285 18.9615C15.2556 18.021 18.6773 16.2049 21.1681 14.4875Z" fill="url(#paint2_linear_2424_2535)" stroke="#86382A" stroke-width="0.147973"/>
<defs>
<linearGradient id="paint0_linear_2424_2535" x1="16.8102" y1="1.6184" x2="25.369" y2="32.7205" gradientUnits="userSpaceOnUse">
<stop stop-color="#923131"/>
<stop offset="1" stop-color="#691335"/>
</linearGradient>
<linearGradient id="paint1_linear_2424_2535" x1="16.9421" y1="28.2385" x2="16.7892" y2="35.1232" gradientUnits="userSpaceOnUse">
<stop stop-color="#FD877A"/>
<stop offset="1" stop-color="#FD877A" stop-opacity="0"/>
</linearGradient>
<linearGradient id="paint2_linear_2424_2535" x1="12.6905" y1="13.419" x2="12.6323" y2="19.5937" gradientUnits="userSpaceOnUse">
<stop stop-color="#FD877A"/>
<stop offset="1" stop-color="#FD877A" stop-opacity="0"/>
</linearGradient>
</defs>
</svg>
