<svg width="40" height="41" viewBox="0 0 40 41" fill="none" xmlns="http://www.w3.org/2000/svg">
<path d="M39.9167 20.0002C39.9167 30.9999 30.9997 39.9169 20 39.9169C9.00033 39.9169 0.0833333 30.9999 0.0833333 20.0002C0.0833333 9.00057 9.00033 0.0835775 20 0.0835775C30.9997 0.0835775 39.9167 9.00057 39.9167 20.0002Z" fill="white" stroke="#86382A" stroke-width="0.166667"/>
<path d="M33.3327 15.9889C32.5994 21.5222 27.3605 26.0167 24.8327 27.5722C20.1383 23.9889 10.9661 16.1722 11.8327 13.5722C12.9161 10.3222 15.7493 6.04136 21.541 5.37469C27.5979 4.67749 34.2494 9.07222 33.3327 15.9889Z" fill="#721934" stroke="#86382A" stroke-width="0.147973"/>
<path d="M14.8041 39.3184L16.4642 30.9515C15.4168 31.1947 13.1659 31.2081 11.4142 29.6609C8.52548 26.6023 10.0617 19.9769 11.1897 15.4647C11.6947 13.4447 12.2558 11.7613 13.5464 10.9197C15.6418 8.98555 25.0214 8.61554 26.8096 11.9595C28.0013 14.1882 25.9221 18.8306 25.3326 20.9056C25.4635 20.5502 26.0705 19.7404 27.0132 19.112C28.1915 18.3264 30.4921 18.7753 29.7065 21.4686C29.0781 23.6233 27.0506 24.8727 26.1154 25.2281C26.8636 29.1051 28.1094 34.1161 29.1576 37.7859C26.4141 39.2012 23.301 40.0003 20.0013 40.0003C18.2036 40.0003 16.4614 39.7632 14.8041 39.3184Z" fill="#FFE1C6" stroke="#86382A" stroke-width="0.147973"/>
<path opacity="0.5" d="M27.1406 14.3528C20.6741 10.3396 14.7597 11.0873 11.9199 13.1007C12.3071 12.1607 12.8071 11.402 13.5467 10.9197C15.642 8.98555 25.0217 8.61554 26.8098 11.9595C27.1513 12.5982 27.2242 13.435 27.1406 14.3528Z" fill="url(#paint0_linear_2424_2616)" stroke="#86382A" stroke-width="0.147973"/>
<path d="M15.082 37.9162L16.4475 31.0342C18.903 30.4993 21.0995 29.5753 23.2489 28.2498C21.1676 31.0342 20.4176 31.7504 15.082 37.9162Z" fill="url(#paint1_linear_2424_2616)" stroke="#86382A" stroke-width="0.147973"/>
<path d="M14.8356 17.8041C14.2444 20.9034 11.6271 22.2384 12.7595 22.9663C13.3879 23.3703 13.9191 23.5836 14.1061 23.6397" stroke="#86382A" stroke-width="0.373969" stroke-linecap="round"/>
<path d="M28.6655 20.1774C28.428 20.1042 27.7577 20.1399 26.977 20.8685C26.4388 21.3707 26.1849 21.9017 26.0812 22.2826C26.0487 22.4017 26.1844 22.4512 26.2625 22.3556C26.6064 21.9351 27.1202 21.5028 27.5088 21.8014C28.0063 22.1835 27.2608 22.9218 26.8259 23.2431" stroke="#86382A" stroke-width="0.373969" stroke-linecap="round"/>
<path d="M15.0078 25.458C15.7023 25.5413 17.2578 25.3413 17.9245 23.8746" stroke="#86382A" stroke-width="0.373969" stroke-linecap="round"/>
<defs>
<linearGradient id="paint0_linear_2424_2616" x1="14.6867" y1="9.45227" x2="14.6461" y2="14.912" gradientUnits="userSpaceOnUse">
<stop stop-color="#FD877A"/>
<stop offset="1" stop-color="#FD877A" stop-opacity="0"/>
</linearGradient>
<linearGradient id="paint1_linear_2424_2616" x1="22.4176" y1="17.167" x2="16.5974" y2="39.0575" gradientUnits="userSpaceOnUse">
<stop stop-color="#FD877A"/>
<stop offset="1" stop-color="#FD877A" stop-opacity="0"/>
</linearGradient>
</defs>
</svg>
