<svg width="40" height="41" viewBox="0 0 40 41" fill="none" xmlns="http://www.w3.org/2000/svg">
<circle cx="20" cy="20" r="19.9167" fill="white" stroke="#86382A" stroke-width="0.166667"/>
<path d="M29.3726 25.0719C27.6726 27.3385 26.9976 30.6274 26.8726 31.9885C23.8448 29.683 17.1059 24.2552 14.3726 20.9885C10.9559 16.9052 7.95595 11.4885 9.62261 8.9052C10.9559 6.83854 13.2059 7.37742 14.1643 7.9052C14.1643 3.82187 16.8726 -0.01147 21.8309 1.32186C25.7976 2.38853 28.2059 6.1552 28.9143 7.9052C29.0671 7.51631 29.9893 6.31354 31.4559 6.94687C33.2893 7.73854 36.0809 12.4052 35.7059 15.8635C35.3309 19.3219 31.4976 22.2385 29.3726 25.0719Z" fill="url(#paint0_linear_2424_2512)" stroke="#86382A" stroke-width="0.147973"/>
<path d="M14.8038 39.3181L16.4639 30.9511C15.4165 31.1943 12.9401 31.2766 11.4139 29.6606C9.50606 27.6406 9.2255 23.9933 9.61828 21.6927C9.87828 20.1699 10.2612 18.8191 10.6369 17.494C10.8287 16.8173 11.0187 16.1472 11.1894 15.4643C11.6944 13.4443 12.2555 11.761 13.5461 10.9193C15.6415 8.98519 25.0211 8.61517 26.8093 11.9592C28.001 14.1878 25.9217 18.8302 25.3323 20.9052C25.4632 20.5498 26.0702 19.74 27.0129 19.1116C28.1912 18.326 30.4918 18.7749 29.7062 21.4683C29.0778 23.623 27.0503 24.8724 26.1151 25.2278C26.8633 29.1048 28.109 34.1158 29.1573 37.7856C26.4138 39.2008 23.3007 40 20.001 40C18.2033 40 16.4611 39.7628 14.8038 39.3181Z" fill="url(#paint1_linear_2424_2512)" stroke="#86382A" stroke-width="0.147973"/>
<path d="M14.8652 39.0111C21.4206 36.1896 23.9636 32.3579 24.4161 30.5719L16.2408 32.0779L14.8652 39.0111Z" fill="url(#paint2_linear_2424_2512)" stroke="#86382A" stroke-width="0.147973"/>
<path d="M14.8375 17.8037C14.2464 20.903 11.6291 22.238 12.7614 22.966C13.3899 23.37 13.921 23.5832 14.1081 23.6393" stroke="#86382A" stroke-width="0.373969" stroke-linecap="round"/>
<path d="M7.70759 30.9886C5.80759 26.2219 8.66593 20.6969 10.2493 18.8636C9.70756 20.9052 9.39506 23.0719 9.70756 24.9886C13.8742 22.1552 19.4992 24.3636 20.9992 25.9886C23.7079 23.9682 25.4701 20.8637 26.0487 18.6865C26.6597 18.5302 26.5201 18.6552 27.4159 18.4469C25.0409 21.7386 25.7981 22.997 25.9992 24.9886C26.6076 31.0113 23.1908 35.8372 16.9964 36.4606C13.3203 36.8305 9.42342 35.2932 7.70759 30.9886Z" fill="#721934" stroke="#86382A" stroke-width="0.147973"/>
<path d="M18.2065 25.7196L14.2148 27.3146C14.298 27.6961 14.9803 28.3895 16.3773 28.1121C17.7744 27.8347 18.1233 26.4015 18.2065 25.7196Z" fill="#F9FAFF" stroke="#86382A" stroke-width="0.147973"/>
<path d="M27.1406 14.3524C20.6741 10.3393 14.7597 11.0869 11.9199 13.1003C12.3071 12.1603 12.8071 11.4016 13.5467 10.9193C15.642 8.98519 25.0217 8.61517 26.8098 11.9592C27.1513 12.5978 27.2242 13.4346 27.1406 14.3524Z" fill="url(#paint3_linear_2424_2512)" stroke="#86382A" stroke-width="0.147973"/>
<path d="M28.6635 20.1771C28.426 20.1038 27.7558 20.1395 26.9751 20.8681C26.4369 21.3704 26.183 21.9014 26.0792 22.2822C26.0468 22.4013 26.1824 22.4508 26.2605 22.3552C26.6045 21.9347 27.1182 21.5024 27.5069 21.801C28.0043 22.1832 27.2589 22.9214 26.8239 23.2427" stroke="#86382A" stroke-width="0.373969" stroke-linecap="round"/>
<defs>
<linearGradient id="paint0_linear_2424_2512" x1="14.994" y1="1.47713" x2="29.0119" y2="29.6876" gradientUnits="userSpaceOnUse">
<stop stop-color="#8C2D31"/>
<stop offset="1" stop-color="#450820"/>
</linearGradient>
<linearGradient id="paint1_linear_2424_2512" x1="15.2518" y1="10.9237" x2="25.5225" y2="34.2961" gradientUnits="userSpaceOnUse">
<stop stop-color="#FDC4A6"/>
<stop offset="1" stop-color="#FBB692"/>
</linearGradient>
<linearGradient id="paint2_linear_2424_2512" x1="16.5977" y1="30.5719" x2="16.4059" y2="39.9707" gradientUnits="userSpaceOnUse">
<stop stop-color="#FD877A"/>
<stop offset="1" stop-color="#FD877A" stop-opacity="0"/>
</linearGradient>
<linearGradient id="paint3_linear_2424_2512" x1="14.6867" y1="9.4519" x2="14.6461" y2="14.9116" gradientUnits="userSpaceOnUse">
<stop stop-color="#FD877A"/>
<stop offset="1" stop-color="#FD877A" stop-opacity="0"/>
</linearGradient>
</defs>
</svg>
