<svg width="40" height="41" viewBox="0 0 40 41" fill="none" xmlns="http://www.w3.org/2000/svg">
<circle cx="20" cy="20" r="19.9167" fill="white" stroke="#86382A" stroke-width="0.166667"/>
<path d="M8.60593 11.8172C8.65082 14.331 10.3828 15.9695 11.2432 16.4745L21.0066 24.1618C22.877 27.5472 26.5055 33.51 26.0566 30.278C25.4955 26.2379 33.1211 22.9258 34.6417 16.9234C35.5953 13.1593 32.2289 8.28809 29.9844 7.04775C28.2786 6.10508 27.4033 7.02905 27.1789 7.60887C24.7613 4.2064 15.8636 -1.75929 12.4776 2.72716C10.682 5.10629 12.3654 7.87072 13.4315 8.95555C11.8043 8.86203 8.56104 9.30344 8.60593 11.8172Z" fill="url(#paint0_linear_2424_2500)" stroke="#86382A" stroke-width="0.147973"/>
<path d="M14.8019 39.3182L16.4619 30.9513C15.4145 31.1944 12.9381 31.2767 11.4119 29.6607C9.50411 27.6407 9.22355 23.9934 9.61633 21.6929C9.87633 20.17 10.2593 18.8193 10.6349 17.4942C10.8268 16.8174 11.0167 16.1474 11.1875 15.4645C11.6925 13.4445 12.2536 11.7611 13.5441 10.9194C14.7916 10.1059 17.0874 10.9175 19.8237 11.8847C19.9183 11.9181 20.0135 11.9518 20.1092 11.9856C22.9709 12.9956 23.3637 14.0617 23.3637 15.4645C23.3637 16.8673 23.5881 17.4284 24.542 17.8773C25.3051 18.2364 25.4585 20.0843 25.4398 20.9634C25.5707 20.608 26.0682 19.7402 27.0109 19.1117C28.1893 18.3262 30.4898 18.7751 29.7043 21.4684C29.0758 23.6231 27.0483 24.8725 26.1131 25.2279C26.8613 29.1049 28.1071 34.1159 29.1554 37.7857C26.4119 39.201 23.2988 40.0001 19.999 40.0001C18.2014 40.0001 16.4591 39.763 14.8019 39.3182Z" fill="url(#paint1_linear_2424_2500)" stroke="#86382A" stroke-width="0.147973"/>
<path d="M23.4488 16.5743C20.6044 14.8095 15.4757 13.528 12.0156 12.8716C12.3887 12.0371 12.8656 11.362 13.5442 10.9194C14.7916 10.1059 17.0874 10.9175 19.8237 11.8847C19.9184 11.9181 20.0135 11.9518 20.1092 11.9856C22.9709 12.9956 23.3637 14.0617 23.3637 15.4645C23.3637 15.9123 23.3866 16.2743 23.4488 16.5743Z" fill="url(#paint2_linear_2424_2500)" stroke="#86382A" stroke-width="0.147973"/>
<path d="M16.4632 30.9513C16.4548 30.9533 16.4464 30.9552 16.4378 30.9571C17.1684 30.7209 18.2402 30.2669 19.2335 29.5363C20.589 28.5393 21.6919 27.6586 22.074 27.3429C21.5074 29.0722 19.5003 32.6721 15.6992 34.8019L16.4632 30.9513C16.4632 30.9513 16.4632 30.9513 16.4632 30.9513Z" fill="url(#paint3_linear_2424_2500)"/>
<path d="M16.4632 30.9513C16.4548 30.9533 16.4464 30.9552 16.4378 30.9571C17.1684 30.7209 18.2402 30.2669 19.2335 29.5363C20.589 28.5393 21.6919 27.6586 22.074 27.3429C21.5074 29.0722 19.5003 32.6721 15.6992 34.8019L16.4632 30.9513ZM16.4632 30.9513C16.4632 30.9513 16.4632 30.9513 16.4632 30.9513Z" stroke="#86382A" stroke-width="0.147973"/>
<path d="M19.7165 23.5273L13.8809 25.8592C14.0024 26.4168 14.7562 27.4307 16.7987 27.0252C18.8411 26.6196 19.5949 24.5243 19.7165 23.5273Z" fill="#F9FAFF" stroke="#86382A" stroke-width="0.147973"/>
<path d="M14.8336 17.8038C14.2425 20.9031 11.6252 22.2382 12.7575 22.9661C13.3859 23.3701 13.9171 23.5833 14.1042 23.6394" stroke="#86382A" stroke-width="0.373969" stroke-linecap="round"/>
<path d="M28.6635 20.1773C28.426 20.1041 27.7558 20.1398 26.9751 20.8684C26.4369 21.3706 26.183 21.9016 26.0792 22.2824C26.0468 22.4015 26.1824 22.451 26.2605 22.3555C26.6045 21.935 27.1182 21.5027 27.5069 21.8013C28.0043 22.1834 27.2589 22.9216 26.8239 23.243" stroke="#86382A" stroke-width="0.373969" stroke-linecap="round"/>
<defs>
<linearGradient id="paint0_linear_2424_2500" x1="14.3654" y1="1.53154" x2="27.8924" y2="29.1102" gradientUnits="userSpaceOnUse">
<stop stop-color="#832633"/>
<stop offset="1" stop-color="#450820"/>
</linearGradient>
<linearGradient id="paint1_linear_2424_2500" x1="15.2498" y1="10.9238" x2="25.5206" y2="34.2963" gradientUnits="userSpaceOnUse">
<stop stop-color="#FDC4A6"/>
<stop offset="1" stop-color="#FBB692"/>
</linearGradient>
<linearGradient id="paint2_linear_2424_2500" x1="16.8641" y1="9.17119" x2="17.233" y2="17.3656" gradientUnits="userSpaceOnUse">
<stop stop-color="#FD877A"/>
<stop offset="1" stop-color="#FD877A" stop-opacity="0"/>
</linearGradient>
<linearGradient id="paint3_linear_2424_2500" x1="16.8556" y1="27.3429" x2="16.6311" y2="35.6474" gradientUnits="userSpaceOnUse">
<stop stop-color="#FD877A"/>
<stop offset="1" stop-color="#FD877A" stop-opacity="0"/>
</linearGradient>
</defs>
</svg>
