<svg width="12" height="12" viewBox="0 0 12 12" fill="none" xmlns="http://www.w3.org/2000/svg">
<circle cx="6" cy="6" r="5.5" fill="#0DCAB1" stroke="white"/>
<path d="M4.35355 6.14645C4.15829 5.95118 3.84171 5.95118 3.64645 6.14645C3.45118 6.34171 3.45118 6.65829 3.64645 6.85355L4.35355 6.14645ZM5.5 8L5.14645 8.35355C5.34171 8.54882 5.65829 8.54882 5.85355 8.35355L5.5 8ZM9.35355 4.85355C9.54882 4.65829 9.54882 4.34171 9.35355 4.14645C9.15829 3.95118 8.84171 3.95118 8.64645 4.14645L9.35355 4.85355ZM3.64645 6.85355L5.14645 8.35355L5.85355 7.64645L4.35355 6.14645L3.64645 6.85355ZM5.85355 8.35355L9.35355 4.85355L8.64645 4.14645L5.14645 7.64645L5.85355 8.35355Z" fill="white"/>
</svg>
