<svg width="14" height="14" viewBox="0 0 14 14" fill="none" xmlns="http://www.w3.org/2000/svg">
<path d="M12.274 8.5753C12.274 7.49708 11.4 6.62301 10.3217 6.62301C9.24352 6.62301 8.36945 7.49708 8.36945 8.5753C8.36945 9.65352 9.24352 10.5276 10.3217 10.5276C11.4 10.5276 12.274 9.65352 12.274 8.5753Z" stroke="white" stroke-opacity="0.6" stroke-width="1.5" stroke-linecap="round" stroke-linejoin="round"/>
<path d="M10.3218 13.1025L10.3218 10.9102M10.3218 0.875045L10.3218 6.23442" stroke="white" stroke-opacity="0.6" stroke-width="1.5" stroke-linecap="round" stroke-linejoin="round"/>
<path d="M5.6981 5.40224C5.6981 6.48046 4.82403 7.35453 3.74581 7.35453C2.66759 7.35453 1.79352 6.48046 1.79352 5.40224C1.79352 4.32402 2.66759 3.44995 3.74581 3.44995C4.82403 3.44995 5.6981 4.32402 5.6981 5.40224Z" stroke="white" stroke-opacity="0.6" stroke-width="1.5" stroke-linecap="round" stroke-linejoin="round"/>
<path d="M3.74591 0.875026L3.74591 3.06734M3.74591 13.1025L3.74591 7.74312" stroke="white" stroke-opacity="0.6" stroke-width="1.5" stroke-linecap="round" stroke-linejoin="round"/>
</svg>
