<svg width="14" height="14" viewBox="0 0 14 14" fill="none" xmlns="http://www.w3.org/2000/svg">
<path d="M12.274 8.5753C12.274 7.49708 11.3999 6.62301 10.3217 6.62301C9.24346 6.62301 8.36938 7.49708 8.36938 8.5753C8.36938 9.65352 9.24346 10.5276 10.3217 10.5276C11.3999 10.5276 12.274 9.65352 12.274 8.5753Z" stroke="#495061" stroke-width="1.5" stroke-linecap="round" stroke-linejoin="round"/>
<path d="M10.3218 13.1025L10.3218 10.9102M10.3218 0.875045L10.3218 6.23442" stroke="#495061" stroke-width="1.5" stroke-linecap="round" stroke-linejoin="round"/>
<path d="M5.69804 5.40224C5.69804 6.48046 4.82397 7.35453 3.74575 7.35453C2.66753 7.35453 1.79346 6.48046 1.79346 5.40224C1.79346 4.32402 2.66753 3.44995 3.74575 3.44995C4.82397 3.44995 5.69804 4.32402 5.69804 5.40224Z" stroke="#495061" stroke-width="1.5" stroke-linecap="round" stroke-linejoin="round"/>
<path d="M3.74585 0.875026L3.74585 3.06734M3.74585 13.1025L3.74585 7.74312" stroke="#495061" stroke-width="1.5" stroke-linecap="round" stroke-linejoin="round"/>
</svg>
