<svg width="40" height="40" viewBox="0 0 40 40" fill="none" xmlns="http://www.w3.org/2000/svg">
<circle opacity="0.1" cx="20" cy="20" r="20" fill="#209989"/>
<path d="M27.5665 17.15V22.85C27.5665 23.7833 27.0665 24.65 26.2581 25.125L21.3081 27.9833C20.4998 28.45 19.4998 28.45 18.6831 27.9833L13.7331 25.125C12.9248 24.6583 12.4248 23.7916 12.4248 22.85V17.15C12.4248 16.2167 12.9248 15.35 13.7331 14.875L18.6831 12.0166C19.4915 11.55 20.4915 11.55 21.3081 12.0166L26.2581 14.875C27.0665 15.35 27.5665 16.2083 27.5665 17.15Z" stroke="#209989" stroke-width="1.5" stroke-linecap="round" stroke-linejoin="round"/>
<path d="M20.0003 19.1666C21.0726 19.1666 21.9419 18.2973 21.9419 17.225C21.9419 16.1526 21.0726 15.2833 20.0003 15.2833C18.9279 15.2833 18.0586 16.1526 18.0586 17.225C18.0586 18.2973 18.9279 19.1666 20.0003 19.1666Z" stroke="#209989" stroke-width="1.5" stroke-linecap="round" stroke-linejoin="round"/>
<path d="M23.3337 23.8832C23.3337 22.3832 21.842 21.1666 20.0003 21.1666C18.1587 21.1666 16.667 22.3832 16.667 23.8832" stroke="#209989" stroke-width="1.5" stroke-linecap="round" stroke-linejoin="round"/>
</svg>
