<svg width="12" height="12" viewBox="0 0 12 12" fill="none" xmlns="http://www.w3.org/2000/svg">
<path d="M4.5 9.49994C4.5 9.91994 4.565 10.3299 4.685 10.7099C2.765 10.0449 1.315 8.27994 1.165 6.21494C1.015 4.01994 2.28 1.96994 4.325 1.10994C4.855 0.889936 5.125 1.04994 5.24 1.16494C5.35 1.27494 5.505 1.53994 5.285 2.04494C5.06 2.56494 4.95 3.11494 4.95 3.68494C4.955 4.70494 5.355 5.64994 6.005 6.37494C5.09 7.10494 4.5 8.23494 4.5 9.49994Z" fill="white"/>
<path opacity="0.4" d="M10.605 8.86C9.615 10.205 8.045 10.995 6.37 10.995C6.29 10.995 6.21 10.99 6.13 10.985C5.63 10.965 5.145 10.87 4.685 10.71C4.565 10.33 4.5 9.92 4.5 9.5C4.5 8.235 5.09 7.105 6.005 6.375C6.74 7.2 7.795 7.735 8.96 7.785C9.275 7.8 9.59 7.775 9.9 7.72C10.46 7.62 10.685 7.83 10.765 7.965C10.85 8.1 10.94 8.395 10.605 8.86Z" fill="white"/>
</svg>
