<svg width="40" height="40" viewBox="0 0 40 40" fill="none" xmlns="http://www.w3.org/2000/svg">
<circle opacity="0.1" cx="20" cy="20" r="20" fill="#209989"/>
<path d="M15 18.3333V16.6666C15 13.9083 15.8333 11.6666 20 11.6666C24.1667 11.6666 25 13.9083 25 16.6666V18.3333" stroke="#209989" stroke-width="1.5" stroke-linecap="round" stroke-linejoin="round"/>
<path d="M24.167 28.3334H15.8337C12.5003 28.3334 11.667 27.5 11.667 24.1667V22.5C11.667 19.1667 12.5003 18.3334 15.8337 18.3334H24.167C27.5003 18.3334 28.3337 19.1667 28.3337 22.5V24.1667C28.3337 27.5 27.5003 28.3334 24.167 28.3334Z" stroke="#209989" stroke-width="1.5" stroke-linecap="round" stroke-linejoin="round"/>
<path d="M23.3301 23.3333H23.3375" stroke="#209989" stroke-width="2" stroke-linecap="round" stroke-linejoin="round"/>
<path d="M19.9961 23.3333H20.0036" stroke="#209989" stroke-width="2" stroke-linecap="round" stroke-linejoin="round"/>
<path d="M16.6621 23.3333H16.6696" stroke="#209989" stroke-width="2" stroke-linecap="round" stroke-linejoin="round"/>
</svg>
