<svg width="40" height="40" viewBox="0 0 40 40" fill="none" xmlns="http://www.w3.org/2000/svg">
<circle opacity="0.1" cx="20" cy="20" r="20" fill="#209989"/>
<path d="M28.333 15V17.0166C28.333 18.3333 27.4997 19.1666 26.183 19.1666H23.333V13.3416C23.333 12.4166 24.0913 11.6666 25.0163 11.6666C25.9247 11.675 26.758 12.0416 27.358 12.6416C27.958 13.25 28.333 14.0833 28.333 15Z" stroke="#209989" stroke-width="1.5" stroke-miterlimit="10" stroke-linecap="round" stroke-linejoin="round"/>
<path d="M11.667 15.8333V27.5C11.667 28.1916 12.4503 28.5833 13.0003 28.1666L14.4253 27.1C14.7587 26.85 15.2253 26.8833 15.5253 27.1833L16.9087 28.575C17.2337 28.9 17.767 28.9 18.092 28.575L19.492 27.175C19.7837 26.8833 20.2503 26.85 20.5753 27.1L22.0003 28.1666C22.5503 28.575 23.3337 28.1833 23.3337 27.5V13.3333C23.3337 12.4166 24.0837 11.6666 25.0003 11.6666H15.8337H15.0003C12.5003 11.6666 11.667 13.1583 11.667 15V15.8333Z" stroke="#209989" stroke-width="1.5" stroke-miterlimit="10" stroke-linecap="round" stroke-linejoin="round"/>
<path d="M17.5 20.8417H20" stroke="#209989" stroke-width="1.5" stroke-linecap="round" stroke-linejoin="round"/>
<path d="M17.5 17.5083H20" stroke="#209989" stroke-width="1.5" stroke-linecap="round" stroke-linejoin="round"/>
<path d="M14.9961 20.8334H15.0036" stroke="#209989" stroke-width="2" stroke-linecap="round" stroke-linejoin="round"/>
<path d="M14.9961 17.5H15.0036" stroke="#209989" stroke-width="2" stroke-linecap="round" stroke-linejoin="round"/>
</svg>
