<svg width="13" height="12" viewBox="0 0 13 12" fill="none" xmlns="http://www.w3.org/2000/svg">
<path d="M5.50033 8.70841C7.27224 8.70841 8.70866 7.27199 8.70866 5.50008C8.70866 3.72817 7.27224 2.29175 5.50033 2.29175C3.72841 2.29175 2.29199 3.72817 2.29199 5.50008C2.29199 7.27199 3.72841 8.70841 5.50033 8.70841Z" fill="white"/>
<path d="M5.49967 10.5233C5.24759 10.5233 5.04134 10.3353 5.04134 10.0833V10.0466C5.04134 9.7945 5.24759 9.58825 5.49967 9.58825C5.75176 9.58825 5.95801 9.7945 5.95801 10.0466C5.95801 10.2987 5.75176 10.5233 5.49967 10.5233ZM8.77217 9.23075C8.65301 9.23075 8.53842 9.18492 8.44676 9.09784L8.38717 9.03825C8.20842 8.8595 8.20842 8.57075 8.38717 8.392C8.56592 8.21325 8.85467 8.21325 9.03342 8.392L9.09301 8.45159C9.27176 8.63034 9.27176 8.91909 9.09301 9.09784C9.00593 9.18492 8.89134 9.23075 8.77217 9.23075ZM2.22717 9.23075C2.10801 9.23075 1.99342 9.18492 1.90176 9.09784C1.72301 8.91909 1.72301 8.63034 1.90176 8.45159L1.96134 8.392C2.14009 8.21325 2.42884 8.21325 2.60759 8.392C2.78634 8.57075 2.78634 8.8595 2.60759 9.03825L2.54801 9.09784C2.46092 9.18492 2.34176 9.23075 2.22717 9.23075ZM10.083 5.95825H10.0463C9.79426 5.95825 9.58801 5.752 9.58801 5.49992C9.58801 5.24784 9.79426 5.04159 10.0463 5.04159C10.2984 5.04159 10.523 5.24784 10.523 5.49992C10.523 5.752 10.3351 5.95825 10.083 5.95825ZM0.953008 5.95825H0.916341C0.664258 5.95825 0.458008 5.752 0.458008 5.49992C0.458008 5.24784 0.664258 5.04159 0.916341 5.04159C1.16842 5.04159 1.39301 5.24784 1.39301 5.49992C1.39301 5.752 1.20509 5.95825 0.953008 5.95825ZM8.71259 2.74534C8.59342 2.74534 8.47884 2.6995 8.38717 2.61242C8.20842 2.43367 8.20842 2.14492 8.38717 1.96617L8.44676 1.90659C8.62551 1.72784 8.91426 1.72784 9.09301 1.90659C9.27176 2.08534 9.27176 2.37409 9.09301 2.55284L9.03342 2.61242C8.94634 2.6995 8.83176 2.74534 8.71259 2.74534ZM2.28676 2.74534C2.16759 2.74534 2.05301 2.6995 1.96134 2.61242L1.90176 2.54825C1.72301 2.3695 1.72301 2.08075 1.90176 1.902C2.08051 1.72325 2.36926 1.72325 2.54801 1.902L2.60759 1.96159C2.78634 2.14034 2.78634 2.42909 2.60759 2.60784C2.52051 2.6995 2.40134 2.74534 2.28676 2.74534ZM5.49967 1.39325C5.24759 1.39325 5.04134 1.20534 5.04134 0.953252V0.916585C5.04134 0.664502 5.24759 0.458252 5.49967 0.458252C5.75176 0.458252 5.95801 0.664502 5.95801 0.916585C5.95801 1.16867 5.75176 1.39325 5.49967 1.39325Z" fill="white"/>
</svg>
