<svg width="24" height="24" viewBox="0 0 24 24" fill="none" xmlns="http://www.w3.org/2000/svg">
<circle cx="12" cy="12" r="12" fill="white"/>
<path d="M20.0219 7.76369C20.7506 9.39401 21.505 12.2672 22.2607 15.1457C22.4435 15.842 22.6264 16.5386 22.809 17.218C20.8679 21.2317 16.7572 24 11.9998 24C9.26714 24 6.7478 23.0866 4.73047 21.5484C5.37969 18.221 6.38539 13.7078 7.461 10.3708L6.64862 9.59317C7.97813 2.13074 17.9158 1.87852 20.0219 7.76369Z" fill="url(#paint0_linear_1697_1534)"/>
<path fill-rule="evenodd" clip-rule="evenodd" d="M12.0151 24.0001C12.0101 24.0001 12.0051 24.0001 12.0001 24.0001C10.9215 24.0001 9.87617 23.8578 8.88182 23.5909L9.87785 18.5708C4.39842 19.8428 6.0018 12.1154 6.70952 9.29321H15.4489C15.4383 9.46474 15.4287 9.61875 15.4197 9.76169C15.3656 10.6292 15.337 11.0886 15.2646 12.578C15.3431 12.3648 15.6416 11.8441 16.2072 11.467C16.9142 10.9957 18.2946 11.265 17.8233 12.8811C17.4462 14.1739 16.2297 14.9235 15.6686 15.1367V23.429C14.5168 23.7984 13.2892 23.9985 12.0151 24.0001Z" fill="#A5D2FF"/>
<path d="M9.87782 18.5708C9.8728 18.572 9.86772 18.5731 9.86259 18.5743C10.301 18.4326 10.944 18.1602 11.54 17.7218C12.3533 17.1236 13.0151 16.5952 13.2443 16.4058C12.9044 17.4433 11.7001 19.6033 9.41943 20.8812L9.87782 18.5708C9.87782 18.5708 9.87782 18.5708 9.87782 18.5708Z" fill="url(#paint1_linear_1697_1534)"/>
<path d="M15.4499 9.30005H6.6999L6.3999 10.65H15.3499L15.4499 9.30005Z" fill="url(#paint2_linear_1697_1534)"/>
<path d="M17.1981 12.1063C17.0556 12.0623 16.6535 12.0837 16.185 12.5209C15.8621 12.8223 15.7098 13.1408 15.6475 13.3693C15.6281 13.4408 15.7094 13.4705 15.7563 13.4132C15.9627 13.1609 16.2709 12.9015 16.5041 13.0806C16.8026 13.3099 16.3553 13.7529 16.0944 13.9457" stroke="#6EA1D4" stroke-width="0.224382" stroke-linecap="round"/>
<circle cx="6.89902" cy="11.6183" r="2.15" stroke="#002447" stroke-width="0.224382" stroke-linecap="round"/>
<circle cx="12.3985" cy="11.6183" r="2.15" stroke="#002447" stroke-width="0.224382" stroke-linecap="round"/>
<path d="M9.20135 11.7822C8.84665 13.6418 7.27627 14.4428 7.95567 14.8796C8.33274 15.122 8.65145 15.2499 8.76367 15.2836" stroke="#6EA1D4" stroke-width="0.224382" stroke-linecap="round"/>
<path d="M9.11133 11.5056C9.30091 11.316 9.79383 11.0506 10.2488 11.5056" stroke="#002447" stroke-width="0.224382" stroke-linecap="round"/>
<defs>
<linearGradient id="paint0_linear_1697_1534" x1="9.66037" y1="3.88824" x2="16.1041" y2="17.7986" gradientUnits="userSpaceOnUse">
<stop stop-color="#16497C"/>
<stop offset="1" stop-color="#002448"/>
</linearGradient>
<linearGradient id="paint1_linear_1697_1534" x1="10.1133" y1="16.4058" x2="9.97859" y2="21.3885" gradientUnits="userSpaceOnUse">
<stop stop-color="#80B3E6"/>
<stop offset="1" stop-color="#80B3E6" stop-opacity="0"/>
</linearGradient>
<linearGradient id="paint2_linear_1697_1534" x1="8.04156" y1="9.30005" x2="8.03637" y2="10.8042" gradientUnits="userSpaceOnUse">
<stop stop-color="#80B3E6"/>
<stop offset="1" stop-color="#80B3E6" stop-opacity="0"/>
</linearGradient>
</defs>
</svg>
