<svg width="24" height="24" viewBox="0 0 24 24" fill="none" xmlns="http://www.w3.org/2000/svg">
<g style="mix-blend-mode:luminosity">
<circle cx="12" cy="12" r="12" fill="white"/>
<path d="M20.022 7.76369C20.7507 9.39401 21.505 12.2672 22.2608 15.1457C22.4436 15.842 22.6265 16.5386 22.8091 17.218C20.868 21.2317 16.7572 24 11.9999 24C9.26722 24 6.74788 23.0866 4.73055 21.5484C5.37977 18.221 6.38546 13.7078 7.46108 10.3708L6.6487 9.59317C7.97821 2.13074 17.9158 1.87852 20.022 7.76369Z" fill="url(#paint0_linear_1203_2875)"/>
<path fill-rule="evenodd" clip-rule="evenodd" d="M9.00098 23.6223C8.96113 23.612 8.92136 23.6016 8.88167 23.5909L9.8777 18.5708C4.39827 19.8428 6.00165 12.1154 6.70937 9.29321H15.4487C15.4381 9.46474 15.4285 9.61875 15.4196 9.76169C15.3655 10.6292 15.3368 11.0886 15.2644 12.578C15.343 12.3648 15.6415 11.8441 16.2071 11.467C16.9141 10.9957 18.2944 11.265 17.8231 12.8811C17.446 14.1739 16.2295 14.9235 15.6684 15.1367V23.429C14.5138 23.7993 13.283 23.9995 12.0056 24.0001C12.0037 24.0001 12.0018 24.0001 11.9999 24.0001C11.8818 24.0001 11.7641 23.9984 11.6468 23.995C10.7358 23.9686 9.85019 23.8408 9.00098 23.6223Z" fill="url(#paint1_linear_1203_2875)"/>
<path d="M9.87786 18.5708C9.87284 18.572 9.86776 18.5731 9.86263 18.5743C10.301 18.4326 10.9441 18.1602 11.54 17.7218C12.3533 17.1236 13.0151 16.5952 13.2443 16.4058C12.9044 17.4433 11.7001 19.6033 9.41947 20.8812L9.87786 18.5708C9.87786 18.5708 9.87786 18.5708 9.87786 18.5708Z" fill="url(#paint2_linear_1203_2875)"/>
<path d="M15.4499 9.30005H6.69986L6.39986 10.65H15.3499L15.4499 9.30005Z" fill="url(#paint3_linear_1203_2875)"/>
<path d="M17.1984 12.1063C17.0559 12.0623 16.6538 12.0837 16.1853 12.5209C15.8624 12.8223 15.7101 13.1408 15.6478 13.3693C15.6284 13.4408 15.7097 13.4705 15.7566 13.4132C15.963 13.1609 16.2712 12.9015 16.5044 13.0806C16.8029 13.3099 16.3556 13.7529 16.0947 13.9457" stroke="#DE7D67" stroke-width="0.224382" stroke-linecap="round"/>
<circle cx="6.89887" cy="11.6183" r="2.15" stroke="#450820" stroke-width="0.224382" stroke-linecap="round"/>
<circle cx="12.3988" cy="11.6183" r="2.15" stroke="#450820" stroke-width="0.224382" stroke-linecap="round"/>
<path d="M9.2012 11.7822C8.84651 13.6418 7.27612 14.4428 7.95552 14.8796C8.33259 15.122 8.6513 15.2499 8.76352 15.2836" stroke="#DE7D67" stroke-width="0.224382" stroke-linecap="round"/>
<path d="M9.11118 11.5056C9.30076 11.316 9.79368 11.0506 10.2487 11.5056" stroke="#450820" stroke-width="0.224382" stroke-linecap="round"/>
</g>
<defs>
<linearGradient id="paint0_linear_1203_2875" x1="9.66045" y1="3.88824" x2="16.1042" y2="17.7986" gradientUnits="userSpaceOnUse">
<stop stop-color="#832633"/>
<stop offset="1" stop-color="#450820"/>
</linearGradient>
<linearGradient id="paint1_linear_1203_2875" x1="9.15041" y1="6.55429" x2="15.3129" y2="20.5778" gradientUnits="userSpaceOnUse">
<stop stop-color="#FDC4A6"/>
<stop offset="1" stop-color="#FBB692"/>
</linearGradient>
<linearGradient id="paint2_linear_1203_2875" x1="10.1133" y1="16.4058" x2="9.97862" y2="21.3885" gradientUnits="userSpaceOnUse">
<stop stop-color="#FD877A"/>
<stop offset="1" stop-color="#FD877A" stop-opacity="0"/>
</linearGradient>
<linearGradient id="paint3_linear_1203_2875" x1="8.04152" y1="9.30005" x2="8.03634" y2="10.8042" gradientUnits="userSpaceOnUse">
<stop stop-color="#FD877A"/>
<stop offset="1" stop-color="#FD877A" stop-opacity="0"/>
</linearGradient>
</defs>
</svg>
