<svg width="40" height="40" viewBox="0 0 40 40" fill="none" xmlns="http://www.w3.org/2000/svg">
<circle opacity="0.1" cx="20" cy="20" r="20" fill="#209989"/>
<path d="M20.1331 19.0583C20.0498 19.05 19.9498 19.05 19.8581 19.0583C17.8748 18.9916 16.2998 17.3666 16.2998 15.3666C16.2998 13.325 17.9498 11.6666 19.9998 11.6666C22.0415 11.6666 23.6998 13.325 23.6998 15.3666C23.6915 17.3666 22.1165 18.9916 20.1331 19.0583Z" stroke="#209989" stroke-width="1.5" stroke-linecap="round" stroke-linejoin="round"/>
<path d="M15.9666 22.1334C13.9499 23.4834 13.9499 25.6834 15.9666 27.025C18.2583 28.5584 22.0166 28.5584 24.3083 27.025C26.3249 25.675 26.3249 23.475 24.3083 22.1334C22.0249 20.6084 18.2666 20.6084 15.9666 22.1334Z" stroke="#209989" stroke-width="1.5" stroke-linecap="round" stroke-linejoin="round"/>
</svg>
